<mxfile host="app.diagrams.net" modified="2021-11-25T16:41:10.371Z" agent="5.0 (Windows NT 10.0; Win64; x64) AppleWebKit/537.36 (KHTML, like Gecko) Chrome/96.0.4664.45 Safari/537.36" version="15.8.6" etag="O-rGKGlwfeSJNZBRoKQJ" type="github" pages="2">
  <diagram id="lKOiRMlYlnAecIGtzMKI" name="Página-1">
    <mxGraphModel dx="1730" dy="968" grid="1" gridSize="10" guides="1" tooltips="1" connect="1" arrows="1" fold="1" page="1" pageScale="1" pageWidth="1169" pageHeight="827" background="#F4F1DE" math="0" shadow="0">
      <root>
        <mxCell id="0" />
        <mxCell id="1" parent="0" />
        <mxCell id="294" value="" style="group;fontSize=17;" parent="1" vertex="1" connectable="0">
          <mxGeometry x="170" y="60" width="2150" height="1330" as="geometry" />
        </mxCell>
        <mxCell id="17" value="&lt;p style=&quot;margin: 4px 0px 0px ; text-align: center ; font-size: 17px&quot;&gt;&lt;i style=&quot;font-size: 17px&quot;&gt;&amp;lt;&amp;lt;Entity&amp;gt;&amp;gt;&lt;/i&gt;&lt;br style=&quot;font-size: 17px&quot;&gt;&lt;b style=&quot;font-size: 17px&quot;&gt;Perfil&lt;/b&gt;&lt;/p&gt;&lt;hr style=&quot;font-size: 17px&quot;&gt;&lt;p style=&quot;margin: 0px 0px 0px 4px ; font-size: 17px&quot;&gt;&lt;span style=&quot;text-align: center ; font-size: 17px&quot;&gt;+ Id: String&lt;/span&gt;&lt;br style=&quot;text-align: center ; font-size: 17px&quot;&gt;&lt;span style=&quot;text-align: center ; font-size: 17px&quot;&gt;+ Nombre: String&lt;/span&gt;&lt;/p&gt;&lt;p style=&quot;margin: 0px 0px 0px 4px ; font-size: 17px&quot;&gt;&lt;span style=&quot;text-align: center ; font-size: 17px&quot;&gt;+ Permisos:String (Object)&lt;/span&gt;&lt;/p&gt;&lt;p style=&quot;margin: 0px 0px 0px 4px ; font-size: 17px&quot;&gt;&lt;span style=&quot;text-align: center ; font-size: 17px&quot;&gt;+ Modulos: String&lt;/span&gt;&lt;/p&gt;" style="verticalAlign=top;align=left;overflow=fill;fontSize=17;fontFamily=Helvetica;html=1;fillColor=#F2CC8F;strokeColor=#E07A5F;fontColor=#393C56;" parent="294" vertex="1">
          <mxGeometry x="1508.55" y="1058.35" width="297.09" height="171.65" as="geometry" />
        </mxCell>
        <mxCell id="18" value="&lt;p style=&quot;margin: 4px 0px 0px ; text-align: center ; font-size: 17px&quot;&gt;&lt;i style=&quot;font-size: 17px&quot;&gt;&amp;lt;&amp;lt;Entity&amp;gt;&amp;gt;&lt;/i&gt;&lt;br style=&quot;font-size: 17px&quot;&gt;&lt;b style=&quot;font-size: 17px&quot;&gt;Usuario&lt;/b&gt;&lt;/p&gt;&lt;hr style=&quot;font-size: 17px&quot;&gt;&lt;p style=&quot;margin: 0px 0px 0px 4px ; font-size: 17px&quot;&gt;&lt;span style=&quot;text-align: center ; font-size: 17px&quot;&gt;+ Id: String&lt;/span&gt;&lt;br style=&quot;text-align: center ; font-size: 17px&quot;&gt;&lt;span style=&quot;text-align: center ; font-size: 17px&quot;&gt;+ Usuario: String&lt;/span&gt;&lt;br style=&quot;text-align: center ; font-size: 17px&quot;&gt;&lt;span style=&quot;text-align: center ; font-size: 17px&quot;&gt;+ Contrasenia: String&lt;/span&gt;&lt;br style=&quot;text-align: center ; font-size: 17px&quot;&gt;&lt;span style=&quot;text-align: center ; font-size: 17px&quot;&gt;+ Nombres: String&lt;/span&gt;&lt;br style=&quot;text-align: center ; font-size: 17px&quot;&gt;&lt;span style=&quot;text-align: center ; font-size: 17px&quot;&gt;+ Apellidos: String&lt;/span&gt;&lt;br style=&quot;text-align: center ; font-size: 17px&quot;&gt;&lt;span style=&quot;text-align: center ; font-size: 17px&quot;&gt;+ TipoDocumento: String&lt;/span&gt;&lt;br style=&quot;text-align: center ; font-size: 17px&quot;&gt;&lt;span style=&quot;text-align: center ; font-size: 17px&quot;&gt;+ NumDocumento: int&lt;/span&gt;&lt;br style=&quot;text-align: center ; font-size: 17px&quot;&gt;&lt;span style=&quot;text-align: center ; font-size: 17px&quot;&gt;+ Correo: String&lt;/span&gt;&lt;br style=&quot;text-align: center ; font-size: 17px&quot;&gt;&lt;span style=&quot;text-align: center ; font-size: 17px&quot;&gt;+ CodigoUniversitario: String&lt;/span&gt;&lt;br style=&quot;text-align: center ; font-size: 17px&quot;&gt;&lt;span style=&quot;text-align: center ; font-size: 17px&quot;&gt;+ IdPrograma: String&lt;/span&gt;&lt;br style=&quot;text-align: center ; font-size: 17px&quot;&gt;&lt;span style=&quot;text-align: center ; font-size: 17px&quot;&gt;+ Ciclo: Number&lt;/span&gt;&lt;br style=&quot;text-align: center ; font-size: 17px&quot;&gt;&lt;span style=&quot;text-align: center ; font-size: 17px&quot;&gt;+ Genero: Char&lt;/span&gt;&lt;br style=&quot;font-size: 17px&quot;&gt;&lt;/p&gt;&lt;p style=&quot;margin: 0px 0px 0px 4px ; font-size: 17px&quot;&gt;&lt;span style=&quot;text-align: center ; font-size: 17px&quot;&gt;+ TipoUsuario: String&lt;/span&gt;&lt;/p&gt;&lt;p style=&quot;margin: 0px 0px 0px 4px ; font-size: 17px&quot;&gt;&lt;span style=&quot;text-align: center ; font-size: 17px&quot;&gt;+ Incapacidad: Boolean&lt;/span&gt;&lt;/p&gt;" style="verticalAlign=top;align=left;overflow=fill;fontSize=17;fontFamily=Helvetica;html=1;fillColor=#F2CC8F;strokeColor=#E07A5F;fontColor=#393C56;" parent="294" vertex="1">
          <mxGeometry x="1477.27" y="448.12" width="297.09" height="361.88" as="geometry" />
        </mxCell>
        <mxCell id="19" value="&lt;p style=&quot;margin: 4px 0px 0px ; text-align: center ; font-size: 17px&quot;&gt;&lt;i style=&quot;font-size: 17px&quot;&gt;&amp;lt;&amp;lt;Entity&amp;gt;&amp;gt;&lt;/i&gt;&lt;br style=&quot;font-size: 17px&quot;&gt;&lt;b style=&quot;font-size: 17px&quot;&gt;ProgramaAcádemico&lt;/b&gt;&lt;/p&gt;&lt;hr style=&quot;font-size: 17px&quot;&gt;&lt;p style=&quot;margin: 0px 0px 0px 4px ; font-size: 17px&quot;&gt;&lt;span style=&quot;text-align: center ; font-size: 17px&quot;&gt;+ id: String&lt;/span&gt;&lt;br style=&quot;text-align: center ; font-size: 17px&quot;&gt;&lt;span style=&quot;text-align: center ; font-size: 17px&quot;&gt;+ N&lt;/span&gt;&lt;span style=&quot;text-align: center ; font-size: 17px&quot;&gt;ombrePrograma: String&lt;/span&gt;&lt;br style=&quot;text-align: center ; font-size: 17px&quot;&gt;&lt;span style=&quot;text-align: center ; font-size: 17px&quot;&gt;+ C&lt;/span&gt;&lt;span style=&quot;text-align: center ; font-size: 17px&quot;&gt;odigoPrograma: String&lt;/span&gt;&lt;br style=&quot;font-size: 17px&quot;&gt;&lt;/p&gt;&lt;p style=&quot;margin: 0px 0px 0px 4px ; font-size: 17px&quot;&gt;&lt;span style=&quot;text-align: center ; font-size: 17px&quot;&gt;+ Duracion: Numeric&lt;/span&gt;&lt;/p&gt;&lt;p style=&quot;margin: 0px 0px 0px 4px ; font-size: 17px&quot;&gt;&lt;span style=&quot;text-align: center ; font-size: 17px&quot;&gt;+ TotalCreditos: Numeric&lt;/span&gt;&lt;/p&gt;&lt;p style=&quot;margin: 0px 0px 0px 4px ; font-size: 17px&quot;&gt;&lt;span style=&quot;text-align: center ; font-size: 17px&quot;&gt;+ Nivel:String&lt;/span&gt;&lt;/p&gt;&lt;p style=&quot;margin: 0px 0px 0px 4px ; font-size: 17px&quot;&gt;&lt;span style=&quot;text-align: center ; font-size: 17px&quot;&gt;+ Modalidad: Strng&lt;/span&gt;&lt;/p&gt;&lt;p style=&quot;margin: 0px 0px 0px 4px ; font-size: 17px&quot;&gt;&lt;span style=&quot;text-align: center ; font-size: 17px&quot;&gt;+ FechaCreacion: Date&lt;/span&gt;&lt;/p&gt;" style="verticalAlign=top;align=left;overflow=fill;fontSize=17;fontFamily=Helvetica;html=1;fillColor=#F2CC8F;strokeColor=#E07A5F;fontColor=#393C56;" parent="294" vertex="1">
          <mxGeometry y="46.94" width="304.91" height="253.06" as="geometry" />
        </mxCell>
        <mxCell id="20" value="&lt;p style=&quot;margin: 4px 0px 0px ; text-align: center ; font-size: 17px&quot;&gt;&lt;i style=&quot;font-size: 17px&quot;&gt;&amp;lt;&amp;lt;&lt;/i&gt;&lt;i style=&quot;font-size: 17px&quot;&gt;Entity&lt;/i&gt;&lt;i style=&quot;font-size: 17px&quot;&gt;&amp;gt;&amp;gt;&lt;/i&gt;&lt;br style=&quot;font-size: 17px&quot;&gt;&lt;b style=&quot;font-size: 17px&quot;&gt;Grupos&lt;/b&gt;&lt;/p&gt;&lt;hr style=&quot;font-size: 17px&quot;&gt;&lt;p style=&quot;margin: 0px 0px 0px 4px ; font-size: 17px&quot;&gt;&lt;span style=&quot;text-align: center ; font-size: 17px&quot;&gt;+ Id: String&lt;/span&gt;&lt;br style=&quot;text-align: center ; font-size: 17px&quot;&gt;&lt;span style=&quot;text-align: center ; font-size: 17px&quot;&gt;+ Codigo: Numeric&lt;/span&gt;&lt;br style=&quot;text-align: center ; font-size: 17px&quot;&gt;&lt;span style=&quot;text-align: center ; font-size: 17px&quot;&gt;+ Nombre: String&lt;/span&gt;&lt;br style=&quot;text-align: center ; font-size: 17px&quot;&gt;&lt;span style=&quot;text-align: center ; font-size: 17px&quot;&gt;+ Capacidad: Numeric&lt;/span&gt;&lt;br style=&quot;text-align: center ; font-size: 17px&quot;&gt;&lt;span style=&quot;text-align: center ; font-size: 17px&quot;&gt;+ IdPrograma: String&lt;/span&gt;&lt;br style=&quot;text-align: center ; font-size: 17px&quot;&gt;&lt;span style=&quot;text-align: center ; font-size: 17px&quot;&gt;+ IdDocente: String&lt;/span&gt;&lt;br style=&quot;font-size: 17px&quot;&gt;&lt;/p&gt;&lt;p style=&quot;margin: 0px 0px 0px 4px ; font-size: 17px&quot;&gt;&lt;br&gt;&lt;/p&gt;" style="verticalAlign=top;align=left;overflow=fill;fontSize=17;fontFamily=Helvetica;html=1;fillColor=#F2CC8F;strokeColor=#E07A5F;fontColor=#393C56;" parent="294" vertex="1">
          <mxGeometry x="938.18" y="46.94" width="297.09" height="213.06" as="geometry" />
        </mxCell>
        <mxCell id="23" value="&lt;p style=&quot;margin: 4px 0px 0px ; text-align: center ; font-size: 17px&quot;&gt;&lt;i style=&quot;font-size: 17px&quot;&gt;&amp;lt;&amp;lt;Entity&amp;gt;&amp;gt;&lt;/i&gt;&lt;br style=&quot;font-size: 17px&quot;&gt;&lt;b style=&quot;font-size: 17px&quot;&gt;Asignatura&lt;/b&gt;&lt;/p&gt;&lt;hr style=&quot;font-size: 17px&quot;&gt;&lt;p style=&quot;margin: 0px 0px 0px 4px ; font-size: 17px&quot;&gt;+ id: String&lt;br style=&quot;font-size: 17px&quot;&gt;+ Nombre: String&lt;/p&gt;&lt;p style=&quot;margin: 0px 0px 0px 4px ; font-size: 17px&quot;&gt;+ FechaCreacion: Date&lt;/p&gt;&lt;p style=&quot;margin: 0px 0px 0px 4px ; font-size: 17px&quot;&gt;+ Tipo: String&lt;/p&gt;&lt;p style=&quot;margin: 0px 0px 0px 4px ; font-size: 17px&quot;&gt;+ Codigo: String&lt;/p&gt;&lt;p style=&quot;margin: 0px 0px 0px 4px ; font-size: 17px&quot;&gt;+ Creditos: Numeric&lt;/p&gt;&lt;p style=&quot;margin: 0px 0px 0px 4px ; font-size: 17px&quot;&gt;&lt;br&gt;&lt;/p&gt;" style="verticalAlign=top;align=left;overflow=fill;fontSize=17;fontFamily=Helvetica;html=1;fillColor=#F2CC8F;strokeColor=#E07A5F;fontColor=#393C56;" parent="294" vertex="1">
          <mxGeometry x="484.73" y="46.94" width="297.09" height="203.06" as="geometry" />
        </mxCell>
        <mxCell id="30" value="" style="endArrow=none;html=1;exitX=1;exitY=0.25;exitDx=0;exitDy=0;entryX=0;entryY=0.25;entryDx=0;entryDy=0;labelBackgroundColor=#F4F1DE;strokeColor=#E07A5F;fontColor=#393C56;fontSize=17;" parent="294" source="19" target="23" edge="1">
          <mxGeometry width="50" height="50" relative="1" as="geometry">
            <mxPoint x="609.8181818181819" y="140.82352941176472" as="sourcePoint" />
            <mxPoint x="688" y="62.588235294117645" as="targetPoint" />
          </mxGeometry>
        </mxCell>
        <mxCell id="31" value="1" style="text;html=1;align=center;verticalAlign=middle;resizable=0;points=[];autosize=1;strokeColor=none;fontColor=#393C56;fontSize=17;" parent="294" vertex="1">
          <mxGeometry x="299.90909090909093" y="88.88235294117648" width="30" height="30" as="geometry" />
        </mxCell>
        <mxCell id="32" value="*" style="text;html=1;align=center;verticalAlign=middle;resizable=0;points=[];autosize=1;strokeColor=none;fontColor=#393C56;fontSize=17;" parent="294" vertex="1">
          <mxGeometry x="458.4545454545455" y="74.53235294117648" width="20" height="30" as="geometry" />
        </mxCell>
        <mxCell id="34" value="1" style="text;html=1;align=center;verticalAlign=middle;resizable=0;points=[];autosize=1;strokeColor=none;fontColor=#393C56;fontSize=17;" parent="294" vertex="1">
          <mxGeometry x="448.4545454545455" y="120.17647058823529" width="30" height="30" as="geometry" />
        </mxCell>
        <mxCell id="36" value="tiene" style="text;html=1;align=center;verticalAlign=middle;resizable=0;points=[];autosize=1;strokeColor=none;fontColor=#393C56;fontSize=17;" parent="294" vertex="1">
          <mxGeometry x="364.9981818181818" y="72.59235294117647" width="50" height="30" as="geometry" />
        </mxCell>
        <mxCell id="37" value="1" style="text;html=1;align=center;verticalAlign=middle;resizable=0;points=[];autosize=1;strokeColor=none;fontColor=#393C56;fontSize=17;" parent="294" vertex="1">
          <mxGeometry x="307.72727272727275" y="120.17647058823529" width="30" height="30" as="geometry" />
        </mxCell>
        <mxCell id="38" value="pertenece" style="text;html=1;align=center;verticalAlign=middle;resizable=0;points=[];autosize=1;strokeColor=none;fontColor=#393C56;fontSize=17;" parent="294" vertex="1">
          <mxGeometry x="351.8218181818182" y="118.88647058823528" width="90" height="30" as="geometry" />
        </mxCell>
        <mxCell id="42" value="" style="endArrow=none;html=1;entryX=-0.005;entryY=0.322;entryDx=0;entryDy=0;entryPerimeter=0;exitX=1;exitY=0.328;exitDx=0;exitDy=0;exitPerimeter=0;labelBackgroundColor=#F4F1DE;strokeColor=#E07A5F;fontColor=#393C56;fontSize=17;" parent="294" source="23" target="20" edge="1">
          <mxGeometry width="50" height="50" relative="1" as="geometry">
            <mxPoint x="781.8181818181819" y="125.17647058823529" as="sourcePoint" />
            <mxPoint x="953.8181818181819" y="128.30588235294118" as="targetPoint" />
          </mxGeometry>
        </mxCell>
        <mxCell id="43" value="1" style="text;html=1;align=center;verticalAlign=middle;resizable=0;points=[];autosize=1;strokeColor=none;fontColor=#393C56;fontSize=17;" parent="294" vertex="1">
          <mxGeometry x="776.8181818181819" y="104.52941176470587" width="30" height="30" as="geometry" />
        </mxCell>
        <mxCell id="44" value="*" style="text;html=1;align=center;verticalAlign=middle;resizable=0;points=[];autosize=1;strokeColor=none;fontColor=#393C56;fontSize=17;" parent="294" vertex="1">
          <mxGeometry x="906.909090909091" y="104.52941176470587" width="20" height="30" as="geometry" />
        </mxCell>
        <mxCell id="45" value="tiene" style="text;html=1;align=center;verticalAlign=middle;resizable=0;points=[];autosize=1;strokeColor=none;fontColor=#393C56;fontSize=17;" parent="294" vertex="1">
          <mxGeometry x="831.909090909091" y="74.52941176470587" width="50" height="30" as="geometry" />
        </mxCell>
        <mxCell id="47" value="pertenece" style="text;html=1;align=center;verticalAlign=middle;resizable=0;points=[];autosize=1;strokeColor=none;fontColor=#393C56;fontSize=17;" parent="294" vertex="1">
          <mxGeometry x="811.9045454545455" y="133.47352941176473" width="90" height="30" as="geometry" />
        </mxCell>
        <mxCell id="48" value="1" style="text;html=1;align=center;verticalAlign=middle;resizable=0;points=[];autosize=1;strokeColor=none;fontColor=#393C56;fontSize=17;" parent="294" vertex="1">
          <mxGeometry x="776.8181818181819" y="135.82352941176472" width="30" height="30" as="geometry" />
        </mxCell>
        <mxCell id="49" value="1" style="text;html=1;align=center;verticalAlign=middle;resizable=0;points=[];autosize=1;strokeColor=none;fontColor=#393C56;fontSize=17;" parent="294" vertex="1">
          <mxGeometry x="901.909090909091" y="135.82352941176472" width="30" height="30" as="geometry" />
        </mxCell>
        <mxCell id="248" value="&lt;p style=&quot;margin: 4px 0px 0px ; text-align: center ; font-size: 17px&quot;&gt;&lt;i style=&quot;font-size: 17px&quot;&gt;&amp;lt;&amp;lt;Entity&amp;gt;&amp;gt;&lt;/i&gt;&lt;br style=&quot;font-size: 17px&quot;&gt;&lt;b style=&quot;font-size: 17px&quot;&gt;UsuarioPorGrupo&lt;/b&gt;&lt;/p&gt;&lt;hr style=&quot;font-size: 17px&quot;&gt;&lt;p style=&quot;margin: 0px 0px 0px 4px ; font-size: 17px&quot;&gt;&lt;span style=&quot;text-align: center ; font-size: 17px&quot;&gt;+ GrupoId: String&lt;/span&gt;&lt;br style=&quot;text-align: center ; font-size: 17px&quot;&gt;&lt;span style=&quot;text-align: center ; font-size: 17px&quot;&gt;+ UsuarioId: String&lt;/span&gt;&lt;br style=&quot;font-size: 17px&quot;&gt;&lt;/p&gt;&lt;p style=&quot;margin: 0px 0px 0px 4px ; font-size: 17px&quot;&gt;+ Calificacion:: Numeric&lt;/p&gt;&lt;p style=&quot;margin: 0px 0px 0px 4px ; font-size: 17px&quot;&gt;&lt;br style=&quot;font-size: 17px&quot;&gt;&lt;/p&gt;" style="verticalAlign=top;align=left;overflow=fill;fontSize=17;fontFamily=Helvetica;html=1;fillColor=#e3c800;strokeColor=#B09500;fontColor=#000000;rounded=0;shadow=0;sketch=0;glass=0;" parent="294" vertex="1">
          <mxGeometry x="1438.18" y="72.59" width="297.09" height="157.41" as="geometry" />
        </mxCell>
        <mxCell id="249" value="" style="endArrow=none;html=1;entryX=0.008;entryY=0.369;entryDx=0;entryDy=0;entryPerimeter=0;labelBackgroundColor=#F4F1DE;strokeColor=#E07A5F;fontColor=#393C56;fontSize=17;" parent="294" source="20" target="248" edge="1">
          <mxGeometry width="50" height="50" relative="1" as="geometry">
            <mxPoint x="1305.2727272727273" y="166.47058823529412" as="sourcePoint" />
            <mxPoint x="1383.4545454545455" y="88.23529411764706" as="targetPoint" />
          </mxGeometry>
        </mxCell>
        <mxCell id="295" value="" style="edgeStyle=orthogonalEdgeStyle;rounded=0;orthogonalLoop=1;jettySize=auto;html=1;fontSize=17;" parent="294" source="250" target="251" edge="1">
          <mxGeometry relative="1" as="geometry" />
        </mxCell>
        <mxCell id="250" value="1" style="text;html=1;align=center;verticalAlign=middle;resizable=0;points=[];autosize=1;strokeColor=none;fontColor=#393C56;fontSize=17;" parent="294" vertex="1">
          <mxGeometry x="1240.0027272727273" y="109.9964705882353" width="30" height="30" as="geometry" />
        </mxCell>
        <mxCell id="251" value="*" style="text;html=1;align=center;verticalAlign=middle;resizable=0;points=[];autosize=1;strokeColor=none;fontColor=#393C56;fontSize=17;" parent="294" vertex="1">
          <mxGeometry x="1409.9972727272727" y="100.17941176470588" width="20" height="30" as="geometry" />
        </mxCell>
        <mxCell id="252" value="" style="endArrow=none;html=1;entryX=0.5;entryY=1;entryDx=0;entryDy=0;exitX=0.42;exitY=0.003;exitDx=0;exitDy=0;exitPerimeter=0;labelBackgroundColor=#F4F1DE;strokeColor=#E07A5F;fontColor=#393C56;fontSize=17;" parent="294" source="18" target="248" edge="1">
          <mxGeometry width="50" height="50" relative="1" as="geometry">
            <mxPoint x="1586.7272727272727" y="432.47058823529414" as="sourcePoint" />
            <mxPoint x="1664.909090909091" y="354.2352941176471" as="targetPoint" />
          </mxGeometry>
        </mxCell>
        <mxCell id="253" value="*" style="text;html=1;align=center;verticalAlign=middle;resizable=0;points=[];autosize=1;strokeColor=none;fontColor=#393C56;fontSize=17;" parent="294" vertex="1">
          <mxGeometry x="1555.4545454545455" y="286.64705882352945" width="20" height="30" as="geometry" />
        </mxCell>
        <mxCell id="254" value="1" style="text;html=1;align=center;verticalAlign=middle;resizable=0;points=[];autosize=1;strokeColor=none;fontColor=#393C56;fontSize=17;" parent="294" vertex="1">
          <mxGeometry x="1566.0909090909092" y="411.8235294117647" width="30" height="30" as="geometry" />
        </mxCell>
        <mxCell id="255" value="Tabla ternaria para simular relacion muchos a muchos" style="text;html=1;align=center;verticalAlign=middle;resizable=0;points=[];autosize=1;strokeColor=#B09500;fillColor=#e3c800;fontColor=#000000;rounded=1;shadow=1;glass=1;sketch=0;fontSize=17;" parent="294" vertex="1">
          <mxGeometry x="1300.909090909091" y="5" width="420" height="30" as="geometry" />
        </mxCell>
        <mxCell id="275" value="&lt;font color=&quot;#000000&quot; style=&quot;font-size: 17px;&quot;&gt;Tipo: Estudiante, Docente, Administrador&lt;/font&gt;" style="text;html=1;align=center;verticalAlign=middle;resizable=0;points=[];autosize=1;strokeColor=none;fontSize=17;fontStyle=1;labelBorderColor=#000000;" parent="294" vertex="1">
          <mxGeometry x="1715.2727272727273" y="803" width="350" height="30" as="geometry" />
        </mxCell>
        <mxCell id="277" value="&lt;font color=&quot;#000000&quot; style=&quot;font-size: 17px;&quot;&gt;*&lt;/font&gt;" style="text;html=1;align=center;verticalAlign=middle;resizable=0;points=[];autosize=1;strokeColor=none;fontSize=17;" parent="294" vertex="1">
          <mxGeometry x="1610.1818181818182" y="411.8235294117647" width="20" height="30" as="geometry" />
        </mxCell>
        <mxCell id="278" value="1" style="text;html=1;align=center;verticalAlign=middle;resizable=0;points=[];autosize=1;strokeColor=none;fontSize=17;fontColor=#000000;" parent="294" vertex="1">
          <mxGeometry x="1581.7272727272727" y="271" width="30" height="30" as="geometry" />
        </mxCell>
        <mxCell id="279" value="" style="endArrow=none;html=1;fontSize=17;exitX=0.421;exitY=0;exitDx=0;exitDy=0;exitPerimeter=0;fontColor=#000000;labelBackgroundColor=#000000;strokeColor=#000000;entryX=0.5;entryY=1;entryDx=0;entryDy=0;" parent="294" source="17" target="18" edge="1">
          <mxGeometry width="50" height="50" relative="1" as="geometry">
            <mxPoint x="1547.6363636363637" y="980.1176470588236" as="sourcePoint" />
            <mxPoint x="1625.818181818182" y="901.8823529411765" as="targetPoint" />
          </mxGeometry>
        </mxCell>
        <mxCell id="280" value="*" style="text;html=1;align=center;verticalAlign=middle;resizable=0;points=[];autosize=1;strokeColor=none;fontSize=17;fontColor=#000000;" parent="294" vertex="1">
          <mxGeometry x="1633.6363636363637" y="1022.0588235294118" width="20" height="30" as="geometry" />
        </mxCell>
        <mxCell id="281" value="1" style="text;html=1;align=center;verticalAlign=middle;resizable=0;points=[];autosize=1;strokeColor=none;fontSize=17;fontColor=#000000;" parent="294" vertex="1">
          <mxGeometry x="1628.6363636363637" y="896.8823529411765" width="30" height="30" as="geometry" />
        </mxCell>
        <mxCell id="282" value="Adicionar Docentes:&amp;nbsp;" style="text;html=1;align=center;verticalAlign=middle;resizable=0;points=[];autosize=1;strokeColor=none;fontSize=17;fontColor=#000000;" parent="294" vertex="1">
          <mxGeometry x="1936.3636363636365" y="1037.7058823529412" width="170" height="30" as="geometry" />
        </mxCell>
        <mxCell id="283" value="Editar Docente" style="text;html=1;align=center;verticalAlign=middle;resizable=0;points=[];autosize=1;strokeColor=none;fontSize=17;fontColor=#000000;" parent="294" vertex="1">
          <mxGeometry x="1936.3636363636365" y="1069" width="130" height="30" as="geometry" />
        </mxCell>
        <mxCell id="284" value="Adicionar materias" style="text;html=1;align=center;verticalAlign=middle;resizable=0;points=[];autosize=1;strokeColor=none;fontSize=17;fontColor=#000000;" parent="294" vertex="1">
          <mxGeometry x="1928.5454545454547" y="1100.2941176470588" width="160" height="30" as="geometry" />
        </mxCell>
        <mxCell id="285" value="Eliminar Materias" style="text;html=1;align=center;verticalAlign=middle;resizable=0;points=[];autosize=1;strokeColor=none;fontSize=17;fontColor=#000000;" parent="294" vertex="1">
          <mxGeometry x="1936.3636363636365" y="1131.5882352941178" width="150" height="30" as="geometry" />
        </mxCell>
        <mxCell id="286" value="Consultar calificaciones" style="text;html=1;align=center;verticalAlign=middle;resizable=0;points=[];autosize=1;strokeColor=none;fontSize=17;fontColor=#000000;" parent="294" vertex="1">
          <mxGeometry x="1928.5454545454547" y="1162.8823529411766" width="190" height="30" as="geometry" />
        </mxCell>
        <mxCell id="287" value="tiene" style="text;html=1;align=center;verticalAlign=middle;resizable=0;points=[];autosize=1;strokeColor=none;fontSize=17;fontColor=#000000;" parent="294" vertex="1">
          <mxGeometry x="1625.818181818182" y="959.470588235294" width="50" height="30" as="geometry" />
        </mxCell>
        <mxCell id="289" value="1" style="text;html=1;align=center;verticalAlign=middle;resizable=0;points=[];autosize=1;strokeColor=none;fontSize=17;fontColor=#000000;" parent="294" vertex="1">
          <mxGeometry x="1581.7272727272727" y="1014.235294117647" width="30" height="30" as="geometry" />
        </mxCell>
        <mxCell id="290" value="1" style="text;html=1;align=center;verticalAlign=middle;resizable=0;points=[];autosize=1;strokeColor=none;fontSize=17;fontColor=#000000;" parent="294" vertex="1">
          <mxGeometry x="1581.7272727272727" y="896.8823529411765" width="30" height="30" as="geometry" />
        </mxCell>
        <mxCell id="291" value="pertenece" style="text;html=1;align=center;verticalAlign=middle;resizable=0;points=[];autosize=1;strokeColor=none;fontSize=17;fontColor=#000000;" parent="294" vertex="1">
          <mxGeometry x="1503.5454545454545" y="959.470588235294" width="90" height="30" as="geometry" />
        </mxCell>
        <mxCell id="292" value="Adicionar calificacion" style="text;html=1;align=center;verticalAlign=middle;resizable=0;points=[];autosize=1;strokeColor=none;fontSize=17;fontColor=#000000;" parent="294" vertex="1">
          <mxGeometry x="1933.5454545454547" y="1194.1764705882351" width="170" height="30" as="geometry" />
        </mxCell>
        <mxCell id="293" value="&lt;font color=&quot;#000000&quot; style=&quot;font-size: 17px;&quot;&gt;Notificacion&lt;/font&gt;" style="text;html=1;align=center;verticalAlign=middle;resizable=0;points=[];autosize=1;strokeColor=none;fontSize=17;" parent="294" vertex="1">
          <mxGeometry x="1949.1818181818182" y="1225.4705882352941" width="100" height="30" as="geometry" />
        </mxCell>
        <mxCell id="297" value="&lt;font color=&quot;#000000&quot; size=&quot;1&quot;&gt;&lt;b style=&quot;font-size: 18px&quot;&gt;PERMISOS&lt;/b&gt;&lt;/font&gt;" style="text;html=1;align=center;verticalAlign=middle;resizable=0;points=[];autosize=1;strokeColor=none;" parent="294" vertex="1">
          <mxGeometry x="1928.5500000000002" y="1002.0600000000001" width="110" height="20" as="geometry" />
        </mxCell>
        <mxCell id="296" value="&lt;font color=&quot;#000000&quot;&gt;&lt;b&gt;&lt;font style=&quot;font-size: 14px&quot;&gt;MODULOS&lt;/font&gt;&lt;/b&gt;&amp;nbsp;(Procesos del sistema): &lt;br&gt;Administracion de usuarios&lt;br&gt;Calificaciones, Reportes&lt;br&gt;&lt;/font&gt;" style="text;html=1;align=center;verticalAlign=middle;resizable=0;points=[];autosize=1;strokeColor=none;" parent="294" vertex="1">
          <mxGeometry x="1280" y="1174.18" width="220" height="50" as="geometry" />
        </mxCell>
      </root>
    </mxGraphModel>
  </diagram>
  <diagram id="GOA32CpJG-VMEXDbsP_f" name="Page-2">
    <mxGraphModel dx="1887" dy="1056" grid="0" gridSize="10" guides="1" tooltips="1" connect="1" arrows="1" fold="1" page="1" pageScale="1" pageWidth="1169" pageHeight="827" background="#162440" math="0" shadow="0">
      <root>
        <mxCell id="0Efx1VS7O6IMrDYuMPd7-0" />
        <mxCell id="0Efx1VS7O6IMrDYuMPd7-1" parent="0Efx1VS7O6IMrDYuMPd7-0" />
        <mxCell id="lID_Iccxd9kgUI00nuMl-0" value="&lt;p style=&quot;margin: 4px 0px 0px; text-align: center; font-size: 17px;&quot;&gt;&lt;i style=&quot;font-size: 17px;&quot;&gt;&amp;lt;&amp;lt;Entity&amp;gt;&amp;gt;&lt;/i&gt;&lt;br style=&quot;font-size: 17px;&quot;&gt;&lt;b style=&quot;font-size: 17px;&quot;&gt;ProgramaAcádemico&lt;/b&gt;&lt;/p&gt;&lt;hr style=&quot;font-size: 17px;&quot;&gt;&lt;p style=&quot;margin: 0px 0px 0px 4px; font-size: 17px;&quot;&gt;&lt;span style=&quot;text-align: center; font-size: 17px;&quot;&gt;+ id: String&lt;/span&gt;&lt;/p&gt;&lt;p style=&quot;margin: 0px 0px 0px 4px; font-size: 17px;&quot;&gt;+ nombrePrograma: String&lt;/p&gt;&lt;p style=&quot;margin: 0px 0px 0px 4px; font-size: 17px;&quot;&gt;&lt;/p&gt;&lt;div style=&quot;text-align: left; font-size: 17px;&quot;&gt;&amp;nbsp;+ codigoPrograma&lt;span style=&quot;font-size: 17px;&quot;&gt;: String&lt;/span&gt;&lt;/div&gt;&lt;div style=&quot;text-align: left; font-size: 17px;&quot;&gt;&lt;span style=&quot;font-size: 17px;&quot;&gt;&amp;nbsp;+ cantidadSemestres: Numeric&lt;/span&gt;&lt;/div&gt;&lt;div style=&quot;text-align: left; font-size: 17px;&quot;&gt;&lt;span style=&quot;font-size: 17px;&quot;&gt;&amp;nbsp;+ cantidadCreditos: Numeric&lt;/span&gt;&lt;/div&gt;&lt;div style=&quot;text-align: left; font-size: 17px;&quot;&gt;&lt;span style=&quot;font-size: 17px;&quot;&gt;&amp;nbsp;+ nivelAcademico&lt;/span&gt;&lt;span style=&quot;font-size: 17px;&quot;&gt;: String&lt;/span&gt;&lt;/div&gt;&lt;div style=&quot;text-align: left; font-size: 17px;&quot;&gt;&lt;span style=&quot;font-size: 17px;&quot;&gt;&amp;nbsp;+ modalidad&lt;/span&gt;&lt;span style=&quot;font-size: 17px;&quot;&gt;: String&lt;/span&gt;&lt;/div&gt;&lt;div style=&quot;text-align: left; font-size: 17px;&quot;&gt;&lt;span style=&quot;font-size: 17px;&quot;&gt;&amp;nbsp;+ costo: Numeric&lt;/span&gt;&lt;/div&gt;&lt;div style=&quot;text-align: left; font-size: 17px;&quot;&gt;&lt;span style=&quot;font-size: 17px;&quot;&gt;&amp;nbsp;+ imagen&lt;/span&gt;&lt;span style=&quot;font-size: 17px;&quot;&gt;: String&lt;/span&gt;&lt;/div&gt;&lt;div style=&quot;text-align: left; font-size: 17px;&quot;&gt;&lt;span style=&quot;font-size: 17px;&quot;&gt;&amp;nbsp;+ fechaCreacion: Date&lt;/span&gt;&lt;/div&gt;&lt;span style=&quot;font-size: 17px; color: rgba(0, 0, 0, 0); font-family: monospace;&quot;&gt;%3CmxGraphModel%3E%3Croot%3E%3CmxCell%20id%3D%220%22%2F%3E%3CmxCell%20id%3D%221%22%20parent%3D%220%22%2F%3E%3CmxCell%20id%3D%222%22%20value%3D%22%26lt%3Bp%20style%3D%26quot%3Bmargin%3A%204px%200px%200px%20%3B%20text-align%3A%20center%20%3B%20font-size%3A%2017px%26quot%3B%26gt%3B%26lt%3Bi%20style%3D%26quot%3Bfont-size%3A%2017px%26quot%3B%26gt%3B%26amp%3Blt%3B%26amp%3Blt%3BEntity%26amp%3Bgt%3B%26amp%3Bgt%3B%26lt%3B%2Fi%26gt%3B%26lt%3Bbr%20style%3D%26quot%3Bfont-size%3A%2017px%26quot%3B%26gt%3B%26lt%3Bb%20style%3D%26quot%3Bfont-size%3A%2017px%26quot%3B%26gt%3BProgramaAc%C3%A1demico%26lt%3B%2Fb%26gt%3B%26lt%3B%2Fp%26gt%3B%26lt%3Bhr%20style%3D%26quot%3Bfont-size%3A%2017px%26quot%3B%26gt%3B%26lt%3Bp%20style%3D%26quot%3Bmargin%3A%200px%200px%200px%204px%20%3B%20font-size%3A%2017px%26quot%3B%26gt%3B%26lt%3Bspan%20style%3D%26quot%3Btext-align%3A%20center%20%3B%20font-size%3A%2017px%26quot%3B%26gt%3B%2B%20id%3A%20String%26lt%3B%2Fspan%26gt%3B%26lt%3Bbr%20style%3D%26quot%3Btext-align%3A%20center%20%3B%20font-size%3A%2017px%26quot%3B%26gt%3B%26lt%3Bspan%20style%3D%26quot%3Btext-align%3A%20center%20%3B%20font-size%3A%2017px%26quot%3B%26gt%3B%2B%20N%26lt%3B%2Fspan%26gt%3B%26lt%3Bspan%20style%3D%26quot%3Btext-align%3A%20center%20%3B%20font-size%3A%2017px%26quot%3B%26gt%3BombrePrograma%3A%20String%26lt%3B%2Fspan%26gt%3B%26lt%3Bbr%20style%3D%26quot%3Btext-align%3A%20center%20%3B%20font-size%3A%2017px%26quot%3B%26gt%3B%26lt%3Bspan%20style%3D%26quot%3Btext-align%3A%20center%20%3B%20font-size%3A%2017px%26quot%3B%26gt%3B%2B%20C%26lt%3B%2Fspan%26gt%3B%26lt%3Bspan%20style%3D%26quot%3Btext-align%3A%20center%20%3B%20font-size%3A%2017px%26quot%3B%26gt%3BodigoPrograma%3A%20String%26lt%3B%2Fspan%26gt%3B%26lt%3Bbr%20style%3D%26quot%3Bfont-size%3A%2017px%26quot%3B%26gt%3B%26lt%3B%2Fp%26gt%3B%26lt%3Bp%20style%3D%26quot%3Bmargin%3A%200px%200px%200px%204px%20%3B%20font-size%3A%2017px%26quot%3B%26gt%3B%26lt%3Bspan%20style%3D%26quot%3Btext-align%3A%20center%20%3B%20font-size%3A%2017px%26quot%3B%26gt%3B%2B%20Duracion%3A%20Numeric%26lt%3B%2Fspan%26gt%3B%26lt%3B%2Fp%26gt%3B%26lt%3Bp%20style%3D%26quot%3Bmargin%3A%200px%200px%200px%204px%20%3B%20font-size%3A%2017px%26quot%3B%26gt%3B%26lt%3Bspan%20style%3D%26quot%3Btext-align%3A%20center%20%3B%20font-size%3A%2017px%26quot%3B%26gt%3B%2B%20TotalCreditos%3A%20Numeric%26lt%3B%2Fspan%26gt%3B%26lt%3B%2Fp%26gt%3B%26lt%3Bp%20style%3D%26quot%3Bmargin%3A%200px%200px%200px%204px%20%3B%20font-size%3A%2017px%26quot%3B%26gt%3B%26lt%3Bspan%20style%3D%26quot%3Btext-align%3A%20center%20%3B%20font-size%3A%2017px%26quot%3B%26gt%3B%2B%20Nivel%3AString%26lt%3B%2Fspan%26gt%3B%26lt%3B%2Fp%26gt%3B%26lt%3Bp%20style%3D%26quot%3Bmargin%3A%200px%200px%200px%204px%20%3B%20font-size%3A%2017px%26quot%3B%26gt%3B%26lt%3Bspan%20style%3D%26quot%3Btext-align%3A%20center%20%3B%20font-size%3A%2017px%26quot%3B%26gt%3B%2B%20Modalidad%3A%20Strng%26lt%3B%2Fspan%26gt%3B%26lt%3B%2Fp%26gt%3B%26lt%3Bp%20style%3D%26quot%3Bmargin%3A%200px%200px%200px%204px%20%3B%20font-size%3A%2017px%26quot%3B%26gt%3B%26lt%3Bspan%20style%3D%26quot%3Btext-align%3A%20center%20%3B%20font-size%3A%2017px%26quot%3B%26gt%3B%2B%20FechaCreacion%3A%20Date%26lt%3B%2Fspan%26gt%3B%26lt%3B%2Fp%26gt%3B%22%20style%3D%22verticalAlign%3Dtop%3Balign%3Dleft%3Boverflow%3Dfill%3BfontSize%3D17%3BfontFamily%3DHelvetica%3Bhtml%3D1%3BfillColor%3D%23F2CC8F%3BstrokeColor%3D%23E07A5F%3BfontColor%3D%23393C56%3B%22%20vertex%3D%221%22%20parent%3D%221%22%3E%3CmxGeometry%20x%3D%22170%22%20y%3D%22106.94%22%20width%3D%22304.91%22%20height%3D%22253.06%22%20as%3D%22geometry%22%2F%3E%3C%2FmxCell%3E%3C%2Froot%3E%3C%2FmxGraphModel%3E&lt;/span&gt;&lt;br style=&quot;font-size: 17px;&quot;&gt;&lt;p style=&quot;font-size: 17px;&quot;&gt;&lt;/p&gt;" style="verticalAlign=top;align=left;overflow=fill;fontSize=17;fontFamily=Helvetica;html=1;fillColor=#F25244;strokeColor=#F25244;fontColor=#ffffff;strokeWidth=3;perimeterSpacing=0;rounded=0;glass=0;shadow=1;sketch=0;" vertex="1" parent="0Efx1VS7O6IMrDYuMPd7-1">
          <mxGeometry x="40" y="40" width="280" height="280" as="geometry" />
        </mxCell>
        <mxCell id="lID_Iccxd9kgUI00nuMl-1" value="&lt;p style=&quot;margin: 4px 0px 0px; text-align: center; font-size: 17px;&quot;&gt;&lt;i style=&quot;font-size: 17px;&quot;&gt;&amp;lt;&amp;lt;Entity&amp;gt;&amp;gt;&lt;/i&gt;&lt;br style=&quot;font-size: 17px;&quot;&gt;&lt;b style=&quot;font-size: 17px;&quot;&gt;Asignatura&lt;/b&gt;&lt;/p&gt;&lt;hr style=&quot;font-size: 17px;&quot;&gt;&lt;p style=&quot;margin: 0px 0px 0px 4px; font-size: 17px;&quot;&gt;&lt;span style=&quot;text-align: center; font-size: 17px;&quot;&gt;+ id: String&lt;/span&gt;&lt;/p&gt;&lt;p style=&quot;margin: 0px 0px 0px 4px; font-size: 17px;&quot;&gt;+ nombreAsignatura: String&lt;/p&gt;&lt;p style=&quot;margin: 0px 0px 0px 4px; font-size: 17px;&quot;&gt;&lt;/p&gt;&lt;div style=&quot;text-align: left; font-size: 17px;&quot;&gt;&amp;nbsp;+ codigoAsigmnatura&lt;span style=&quot;font-size: 17px;&quot;&gt;: String&lt;/span&gt;&lt;/div&gt;&lt;div style=&quot;text-align: left; font-size: 17px;&quot;&gt;&amp;nbsp;+ componente&lt;span style=&quot;font-size: 17px;&quot;&gt;: String&lt;/span&gt;&lt;/div&gt;&lt;div style=&quot;text-align: left; font-size: 17px;&quot;&gt;&amp;nbsp;+ cantidadCreditos&lt;span style=&quot;font-size: 17px;&quot;&gt;: String&lt;/span&gt;&lt;/div&gt;&lt;div style=&quot;text-align: left; font-size: 17px;&quot;&gt;&lt;span style=&quot;font-size: 17px;&quot;&gt;&amp;nbsp;+ programaAcademicoId&lt;/span&gt;&lt;span style=&quot;font-size: 17px;&quot;&gt;: String&lt;/span&gt;&lt;/div&gt;&lt;div style=&quot;text-align: left; font-size: 17px;&quot;&gt;&lt;span style=&quot;font-size: 17px;&quot;&gt;&amp;nbsp;+ fechaCreacion: Date&lt;/span&gt;&lt;/div&gt;&lt;span style=&quot;font-size: 17px; color: rgba(0, 0, 0, 0); font-family: monospace;&quot;&gt;%3CmxGraphModel%3E%3Croot%3E%3CmxCell%20id%3D%220%22%2F%3E%3CmxCell%20id%3D%221%22%20parent%3D%220%22%2F%3E%3CmxCell%20id%3D%222%22%20value%3D%22%26lt%3Bp%20style%3D%26quot%3Bmargin%3A%204px%200px%200px%20%3B%20text-align%3A%20center%20%3B%20font-size%3A%2017px%26quot%3B%26gt%3B%26lt%3Bi%20style%3D%26quot%3Bfont-size%3A%2017px%26quot%3B%26gt%3B%26amp%3Blt%3B%26amp%3Blt%3BEntity%26amp%3Bgt%3B%26amp%3Bgt%3B%26lt%3B%2Fi%26gt%3B%26lt%3Bbr%20style%3D%26quot%3Bfont-size%3A%2017px%26quot%3B%26gt%3B%26lt%3Bb%20style%3D%26quot%3Bfont-size%3A%2017px%26quot%3B%26gt%3BProgramaAc%C3%A1demico%26lt%3B%2Fb%26gt%3B%26lt%3B%2Fp%26gt%3B%26lt%3Bhr%20style%3D%26quot%3Bfont-size%3A%2017px%26quot%3B%26gt%3B%26lt%3Bp%20style%3D%26quot%3Bmargin%3A%200px%200px%200px%204px%20%3B%20font-size%3A%2017px%26quot%3B%26gt%3B%26lt%3Bspan%20style%3D%26quot%3Btext-align%3A%20center%20%3B%20font-size%3A%2017px%26quot%3B%26gt%3B%2B%20id%3A%20String%26lt%3B%2Fspan%26gt%3B%26lt%3Bbr%20style%3D%26quot%3Btext-align%3A%20center%20%3B%20font-size%3A%2017px%26quot%3B%26gt%3B%26lt%3Bspan%20style%3D%26quot%3Btext-align%3A%20center%20%3B%20font-size%3A%2017px%26quot%3B%26gt%3B%2B%20N%26lt%3B%2Fspan%26gt%3B%26lt%3Bspan%20style%3D%26quot%3Btext-align%3A%20center%20%3B%20font-size%3A%2017px%26quot%3B%26gt%3BombrePrograma%3A%20String%26lt%3B%2Fspan%26gt%3B%26lt%3Bbr%20style%3D%26quot%3Btext-align%3A%20center%20%3B%20font-size%3A%2017px%26quot%3B%26gt%3B%26lt%3Bspan%20style%3D%26quot%3Btext-align%3A%20center%20%3B%20font-size%3A%2017px%26quot%3B%26gt%3B%2B%20C%26lt%3B%2Fspan%26gt%3B%26lt%3Bspan%20style%3D%26quot%3Btext-align%3A%20center%20%3B%20font-size%3A%2017px%26quot%3B%26gt%3BodigoPrograma%3A%20String%26lt%3B%2Fspan%26gt%3B%26lt%3Bbr%20style%3D%26quot%3Bfont-size%3A%2017px%26quot%3B%26gt%3B%26lt%3B%2Fp%26gt%3B%26lt%3Bp%20style%3D%26quot%3Bmargin%3A%200px%200px%200px%204px%20%3B%20font-size%3A%2017px%26quot%3B%26gt%3B%26lt%3Bspan%20style%3D%26quot%3Btext-align%3A%20center%20%3B%20font-size%3A%2017px%26quot%3B%26gt%3B%2B%20Duracion%3A%20Numeric%26lt%3B%2Fspan%26gt%3B%26lt%3B%2Fp%26gt%3B%26lt%3Bp%20style%3D%26quot%3Bmargin%3A%200px%200px%200px%204px%20%3B%20font-size%3A%2017px%26quot%3B%26gt%3B%26lt%3Bspan%20style%3D%26quot%3Btext-align%3A%20center%20%3B%20font-size%3A%2017px%26quot%3B%26gt%3B%2B%20TotalCreditos%3A%20Numeric%26lt%3B%2Fspan%26gt%3B%26lt%3B%2Fp%26gt%3B%26lt%3Bp%20style%3D%26quot%3Bmargin%3A%200px%200px%200px%204px%20%3B%20font-size%3A%2017px%26quot%3B%26gt%3B%26lt%3Bspan%20style%3D%26quot%3Btext-align%3A%20center%20%3B%20font-size%3A%2017px%26quot%3B%26gt%3B%2B%20Nivel%3AString%26lt%3B%2Fspan%26gt%3B%26lt%3B%2Fp%26gt%3B%26lt%3Bp%20style%3D%26quot%3Bmargin%3A%200px%200px%200px%204px%20%3B%20font-size%3A%2017px%26quot%3B%26gt%3B%26lt%3Bspan%20style%3D%26quot%3Btext-align%3A%20center%20%3B%20font-size%3A%2017px%26quot%3B%26gt%3B%2B%20Modalidad%3A%20Strng%26lt%3B%2Fspan%26gt%3B%26lt%3B%2Fp%26gt%3B%26lt%3Bp%20style%3D%26quot%3Bmargin%3A%200px%200px%200px%204px%20%3B%20font-size%3A%2017px%26quot%3B%26gt%3B%26lt%3Bspan%20style%3D%26quot%3Btext-align%3A%20center%20%3B%20font-size%3A%2017px%26quot%3B%26gt%3B%2B%20FechaCreacion%3A%20Date%26lt%3B%2Fspan%26gt%3B%26lt%3B%2Fp%26gt%3B%22%20style%3D%22verticalAlign%3Dtop%3Balign%3Dleft%3Boverflow%3Dfill%3BfontSize%3D17%3BfontFamily%3DHelvetica%3Bhtml%3D1%3BfillColor%3D%23F2CC8F%3BstrokeColor%3D%23E07A5F%3BfontColor%3D%23393C56%3B%22%20vertex%3D%221%22%20parent%3D%221%22%3E%3CmxGeometry%20x%3D%22170%22%20y%3D%22106.94%22%20width%3D%22304.91%22%20height%3D%22253.06%22%20as%3D%22geometry%22%2F%3E%3C%2FmxCell%3E%3C%2Froot%3E%3C%2FmxGraphModel%3E&lt;/span&gt;&lt;br style=&quot;font-size: 17px;&quot;&gt;&lt;p style=&quot;font-size: 17px;&quot;&gt;&lt;/p&gt;" style="verticalAlign=top;align=left;overflow=fill;fontSize=17;fontFamily=Helvetica;html=1;fillColor=#F25244;strokeColor=#F25244;fontColor=#ffffff;strokeWidth=3;perimeterSpacing=0;rounded=0;glass=0;shadow=1;sketch=0;" vertex="1" parent="0Efx1VS7O6IMrDYuMPd7-1">
          <mxGeometry x="440" y="70" width="280" height="220" as="geometry" />
        </mxCell>
        <mxCell id="lID_Iccxd9kgUI00nuMl-2" value="&lt;p style=&quot;margin: 4px 0px 0px; text-align: center; font-size: 17px;&quot;&gt;&lt;i style=&quot;font-size: 17px;&quot;&gt;&amp;lt;&amp;lt;Entity&amp;gt;&amp;gt;&lt;/i&gt;&lt;br style=&quot;font-size: 17px;&quot;&gt;&lt;b style=&quot;font-size: 17px;&quot;&gt;Grupo&lt;/b&gt;&lt;/p&gt;&lt;hr style=&quot;font-size: 17px;&quot;&gt;&lt;p style=&quot;margin: 0px 0px 0px 4px; font-size: 17px;&quot;&gt;&lt;span style=&quot;text-align: center; font-size: 17px;&quot;&gt;+ id: String&lt;/span&gt;&lt;/p&gt;&lt;p style=&quot;margin: 0px 0px 0px 4px; font-size: 17px;&quot;&gt;+ codigoGrupo: String&lt;/p&gt;&lt;p style=&quot;margin: 0px 0px 0px 4px; font-size: 17px;&quot;&gt;&lt;/p&gt;&lt;div style=&quot;text-align: left; font-size: 17px;&quot;&gt;&amp;nbsp;+ capacidadEstudiantes: Numeric&lt;/div&gt;&lt;div style=&quot;text-align: left; font-size: 17px;&quot;&gt;&amp;nbsp;+ docenteId: String&lt;/div&gt;&lt;div style=&quot;text-align: left; font-size: 17px;&quot;&gt;&amp;nbsp;+ asignaturaId: String&lt;/div&gt;&lt;div style=&quot;text-align: left; font-size: 17px;&quot;&gt;&amp;nbsp;+ fechaCreacion: String&lt;/div&gt;&lt;span style=&quot;font-size: 17px; color: rgba(0, 0, 0, 0); font-family: monospace;&quot;&gt;&lt;br style=&quot;font-size: 17px;&quot;&gt;++hModel%3E%3Croot%3E%3CmxCell%20id%3D%220%22%2F%3E%3CmxCell%20id%3D%221%22%20parent%3D%220%22%2F%3E%3CmxCell%20id%3D%222%22%20value%3D%22%26lt%3Bp%20style%3D%26quot%3Bmargin%3A%204px%200px%200px%20%3B%20text-align%3A%20center%20%3B%20font-size%3A%2017px%26quot%3B%26gt%3B%26lt%3Bi%20style%3D%26quot%3Bfont-size%3A%2017px%26quot%3B%26gt%3B%26amp%3Blt%3B%26amp%3Blt%3BEntity%26amp%3Bgt%3B%26amp%3Bgt%3B%26lt%3B%2Fi%26gt%3B%26lt%3Bbr%20style%3D%26quot%3Bfont-size%3A%2017px%26quot%3B%26gt%3B%26lt%3Bb%20style%3D%26quot%3Bfont-size%3A%2017px%26quot%3B%26gt%3BProgramaAc%C3%A1demico%26lt%3B%2Fb%26gt%3B%26lt%3B%2Fp%26gt%3B%26lt%3Bhr%20style%3D%26quot%3Bfont-size%3A%2017px%26quot%3B%26gt%3B%26lt%3Bp%20style%3D%26quot%3Bmargin%3A%200px%200px%200px%204px%20%3B%20font-size%3A%2017px%26quot%3B%26gt%3B%26lt%3Bspan%20style%3D%26quot%3Btext-align%3A%20center%20%3B%20font-size%3A%2017px%26quot%3B%26gt%3B%2B%20id%3A%20String%26lt%3B%2Fspan%26gt%3B%26lt%3Bbr%20style%3D%26quot%3Btext-align%3A%20center%20%3B%20font-size%3A%2017px%26quot%3B%26gt%3B%26lt%3Bspan%20style%3D%26quot%3Btext-align%3A%20center%20%3B%20font-size%3A%2017px%26quot%3B%26gt%3B%2B%20N%26lt%3B%2Fspan%26gt%3B%26lt%3Bspan%20style%3D%26quot%3Btext-align%3A%20center%20%3B%20font-size%3A%2017px%26quot%3B%26gt%3BombrePrograma%3A%20String%26lt%3B%2Fspan%26gt%3B%26lt%3Bbr%20style%3D%26quot%3Btext-align%3A%20center%20%3B%20font-size%3A%2017px%26quot%3B%26gt%3B%26lt%3Bspan%20style%3D%26quot%3Btext-align%3A%20center%20%3B%20font-size%3A%2017px%26quot%3B%26gt%3B%2B%20C%26lt%3B%2Fspan%26gt%3B%26lt%3Bspan%20style%3D%26quot%3Btext-align%3A%20center%20%3B%20font-size%3A%2017px%26quot%3B%26gt%3BodigoPrograma%3A%20String%26lt%3B%2Fspan%26gt%3B%26lt%3Bbr%20style%3D%26quot%3Bfont-size%3A%2017px%26quot%3B%26gt%3B%26lt%3B%2Fp%26gt%3B%26lt%3Bp%20style%3D%26quot%3Bmargin%3A%200px%200px%200px%204px%20%3B%20font-size%3A%2017px%26quot%3B%26gt%3B%26lt%3Bspan%20style%3D%26quot%3Btext-align%3A%20center%20%3B%20font-size%3A%2017px%26quot%3B%26gt%3B%2B%20Duracion%3A%20Numeric%26lt%3B%2Fspan%26gt%3B%26lt%3B%2Fp%26gt%3B%26lt%3Bp%20style%3D%26quot%3Bmargin%3A%200px%200px%200px%204px%20%3B%20font-size%3A%2017px%26quot%3B%26gt%3B%26lt%3Bspan%20style%3D%26quot%3Btext-align%3A%20center%20%3B%20font-size%3A%2017px%26quot%3B%26gt%3B%2B%20TotalCreditos%3A%20Numeric%26lt%3B%2Fspan%26gt%3B%26lt%3B%2Fp%26gt%3B%26lt%3Bp%20style%3D%26quot%3Bmargin%3A%200px%200px%200px%204px%20%3B%20font-size%3A%2017px%26quot%3B%26gt%3B%26lt%3Bspan%20style%3D%26quot%3Btext-align%3A%20center%20%3B%20font-size%3A%2017px%26quot%3B%26gt%3B%2B%20Nivel%3AString%26lt%3B%2Fspan%26gt%3B%26lt%3B%2Fp%26gt%3B%26lt%3Bp%20style%3D%26quot%3Bmargin%3A%200px%200px%200px%204px%20%3B%20font-size%3A%2017px%26quot%3B%26gt%3B%26lt%3Bspan%20style%3D%26quot%3Btext-align%3A%20center%20%3B%20font-size%3A%2017px%26quot%3B%26gt%3B%2B%20Modalidad%3A%20Strng%26lt%3B%2Fspan%26gt%3B%26lt%3B%2Fp%26gt%3B%26lt%3Bp%20style%3D%26quot%3Bmargin%3A%200px%200px%200px%204px%20%3B%20font-size%3A%2017px%26quot%3B%26gt%3B%26lt%3Bspan%20style%3D%26quot%3Btext-align%3A%20center%20%3B%20font-size%3A%2017px%26quot%3B%26gt%3B%2B%20FechaCreacion%3A%20Date%26lt%3B%2Fspan%26gt%3B%26lt%3B%2Fp%26gt%3B%22%20style%3D%22verticalAlign%3Dtop%3Balign%3Dleft%3Boverflow%3Dfill%3BfontSize%3D17%3BfontFamily%3DHelvetica%3Bhtml%3D1%3BfillColor%3D%23F2CC8F%3BstrokeColor%3D%23E07A5F%3BfontColor%3D%23393C56%3B%22%20vertex%3D%221%22%20parent%3D%221%22%3E%3CmxGeometry%20x%3D%22170%22%20y%3D%22106.94%22%20width%3D%22304.91%22%20height%3D%22253.06%22%20as%3D%22geometry%22%2F%3E%3C%2FmxCell%3E%3C%2Froot%3E%3C%2FmxGraphModel%3E&lt;/span&gt;&lt;br style=&quot;font-size: 17px;&quot;&gt;&lt;p style=&quot;font-size: 17px;&quot;&gt;&lt;/p&gt;" style="verticalAlign=top;align=left;overflow=fill;fontSize=17;fontFamily=Helvetica;html=1;fillColor=#F25244;strokeColor=#F25244;fontColor=#ffffff;strokeWidth=3;perimeterSpacing=0;rounded=0;glass=0;shadow=1;sketch=0;" vertex="1" parent="0Efx1VS7O6IMrDYuMPd7-1">
          <mxGeometry x="840" y="80" width="280" height="200" as="geometry" />
        </mxCell>
        <mxCell id="Z8Mcpoi2ezNKovxTk_qm-11" style="edgeStyle=orthogonalEdgeStyle;rounded=0;orthogonalLoop=1;jettySize=auto;html=1;exitX=0.5;exitY=1;exitDx=0;exitDy=0;entryX=0;entryY=0.5;entryDx=0;entryDy=0;fontSize=17;dashed=1;endArrow=none;endFill=0;strokeColor=#D3D0C2;strokeWidth=3;dashPattern=1 1;" edge="1" parent="0Efx1VS7O6IMrDYuMPd7-1" source="lID_Iccxd9kgUI00nuMl-3" target="Z8Mcpoi2ezNKovxTk_qm-4">
          <mxGeometry relative="1" as="geometry" />
        </mxCell>
        <mxCell id="lID_Iccxd9kgUI00nuMl-3" value="&lt;p style=&quot;margin: 4px 0px 0px; text-align: center; font-size: 17px;&quot;&gt;&lt;i style=&quot;font-size: 17px;&quot;&gt;&amp;lt;&amp;lt;Entity&amp;gt;&amp;gt;&lt;/i&gt;&lt;br style=&quot;font-size: 17px;&quot;&gt;&lt;b style=&quot;font-size: 17px;&quot;&gt;Usuario&lt;/b&gt;&lt;/p&gt;&lt;hr style=&quot;font-size: 17px;&quot;&gt;&lt;p style=&quot;margin: 0px 0px 0px 4px; font-size: 17px;&quot;&gt;&lt;span style=&quot;text-align: center; font-size: 17px;&quot;&gt;+ id: String&lt;/span&gt;&lt;/p&gt;&lt;p style=&quot;margin: 0px 0px 0px 4px; font-size: 17px;&quot;&gt;+ nombresUsuario: String&lt;/p&gt;&lt;p style=&quot;margin: 0px 0px 0px 4px; font-size: 17px;&quot;&gt;&lt;/p&gt;&lt;div style=&quot;text-align: left; font-size: 17px;&quot;&gt;&amp;nbsp;+ apellidosUsuario: String&lt;/div&gt;&lt;div style=&quot;text-align: left; font-size: 17px;&quot;&gt;&amp;nbsp;+ tipoIdentificacion: String&lt;/div&gt;&lt;div style=&quot;text-align: left; font-size: 17px;&quot;&gt;&amp;nbsp;+ noIdentificacion: String&lt;/div&gt;&lt;div style=&quot;text-align: left; font-size: 17px;&quot;&gt;&amp;nbsp;+ correoElectronico: String&lt;/div&gt;&lt;div style=&quot;text-align: left; font-size: 17px;&quot;&gt;&amp;nbsp;+ telefono: String&lt;/div&gt;&lt;div style=&quot;text-align: left; font-size: 17px;&quot;&gt;&amp;nbsp;+ programaAcademicoId: String&lt;/div&gt;&lt;div style=&quot;text-align: left; font-size: 17px;&quot;&gt;&amp;nbsp;+ rol: String&lt;/div&gt;&lt;div style=&quot;text-align: left; font-size: 17px;&quot;&gt;&amp;nbsp;+ usuario: String&lt;/div&gt;&lt;div style=&quot;text-align: left; font-size: 17px;&quot;&gt;&amp;nbsp;+ contrasenia: String&lt;/div&gt;&lt;div style=&quot;text-align: left; font-size: 17px;&quot;&gt;&amp;nbsp;+ fechaCreacion: String&lt;/div&gt;&lt;span style=&quot;font-size: 17px; color: rgba(0, 0, 0, 0); font-family: monospace;&quot;&gt;%3CmxGraphModel%3E%3Croot%3E%3CmxCell%20id%3D%220%22%2F%3E%3CmxCell%20id%3D%221%22%20parent%3D%220%22%2F%3E%3CmxCell%20id%3D%222%22%20value%3D%22%26lt%3Bp%20style%3D%26quot%3Bmargin%3A%204px%200px%200px%20%3B%20text-align%3A%20center%20%3B%20font-size%3A%2017px%26quot%3B%26gt%3B%26lt%3Bi%20style%3D%26quot%3Bfont-size%3A%2017px%26quot%3B%26gt%3B%26amp%3Blt%3B%26amp%3Blt%3BEntity%26amp%3Bgt%3B%26amp%3Bgt%3B%26lt%3B%2Fi%26gt%3B%26lt%3Bbr%20style%3D%26quot%3Bfont-size%3A%2017px%26quot%3B%26gt%3B%26lt%3Bb%20style%3D%26quot%3Bfont-size%3A%2017px%26quot%3B%26gt%3BProgramaAc%C3%A1demico%26lt%3B%2Fb%26gt%3B%26lt%3B%2Fp%26gt%3B%26lt%3Bhr%20style%3D%26quot%3Bfont-size%3A%2017px%26quot%3B%26gt%3B%26lt%3Bp%20style%3D%26quot%3Bmargin%3A%200px%200px%200px%204px%20%3B%20font-size%3A%2017px%26quot%3B%26gt%3B%26lt%3Bspan%20style%3D%26quot%3Btext-align%3A%20center%20%3B%20font-size%3A%2017px%26quot%3B%26gt%3B%2B%20id%3A%20String%26lt%3B%2Fspan%26gt%3B%26lt%3Bbr%20style%3D%26quot%3Btext-align%3A%20center%20%3B%20font-size%3A%2017px%26quot%3B%26gt%3B%26lt%3Bspan%20style%3D%26quot%3Btext-align%3A%20center%20%3B%20font-size%3A%2017px%26quot%3B%26gt%3B%2B%20N%26lt%3B%2Fspan%26gt%3B%26lt%3Bspan%20style%3D%26quot%3Btext-align%3A%20center%20%3B%20font-size%3A%2017px%26quot%3B%26gt%3BombrePrograma%3A%20String%26lt%3B%2Fspan%26gt%3B%26lt%3Bbr%20style%3D%26quot%3Btext-align%3A%20center%20%3B%20font-size%3A%2017px%26quot%3B%26gt%3B%26lt%3Bspan%20style%3D%26quot%3Btext-align%3A%20center%20%3B%20font-size%3A%2017px%26quot%3B%26gt%3B%2B%20C%26lt%3B%2Fspan%26gt%3B%26lt%3Bspan%20style%3D%26quot%3Btext-align%3A%20center%20%3B%20font-size%3A%2017px%26quot%3B%26gt%3BodigoPrograma%3A%20String%26lt%3B%2Fspan%26gt%3B%26lt%3Bbr%20style%3D%26quot%3Bfont-size%3A%2017px%26quot%3B%26gt%3B%26lt%3B%2Fp%26gt%3B%26lt%3Bp%20style%3D%26quot%3Bmargin%3A%200px%200px%200px%204px%20%3B%20font-size%3A%2017px%26quot%3B%26gt%3B%26lt%3Bspan%20style%3D%26quot%3Btext-align%3A%20center%20%3B%20font-size%3A%2017px%26quot%3B%26gt%3B%2B%20Duracion%3A%20Numeric%26lt%3B%2Fspan%26gt%3B%26lt%3B%2Fp%26gt%3B%26lt%3Bp%20style%3D%26quot%3Bmargin%3A%200px%200px%200px%204px%20%3B%20font-size%3A%2017px%26quot%3B%26gt%3B%26lt%3Bspan%20style%3D%26quot%3Btext-align%3A%20center%20%3B%20font-size%3A%2017px%26quot%3B%26gt%3B%2B%20TotalCreditos%3A%20Numeric%26lt%3B%2Fspan%26gt%3B%26lt%3B%2Fp%26gt%3B%26lt%3Bp%20style%3D%26quot%3Bmargin%3A%200px%200px%200px%204px%20%3B%20font-size%3A%2017px%26quot%3B%26gt%3B%26lt%3Bspan%20style%3D%26quot%3Btext-align%3A%20center%20%3B%20font-size%3A%2017px%26quot%3B%26gt%3B%2B%20Nivel%3AString%26lt%3B%2Fspan%26gt%3B%26lt%3B%2Fp%26gt%3B%26lt%3Bp%20style%3D%26quot%3Bmargin%3A%200px%200px%200px%204px%20%3B%20font-size%3A%2017px%26quot%3B%26gt%3B%26lt%3Bspan%20style%3D%26quot%3Btext-align%3A%20center%20%3B%20font-size%3A%2017px%26quot%3B%26gt%3B%2B%20Modalidad%3A%20Strng%26lt%3B%2Fspan%26gt%3B%26lt%3B%2Fp%26gt%3B%26lt%3Bp%20style%3D%26quot%3Bmargin%3A%200px%200px%200px%204px%20%3B%20font-size%3A%2017px%26quot%3B%26gt%3B%26lt%3Bspan%20style%3D%26quot%3Btext-align%3A%20center%20%3B%20font-size%3A%2017px%26quot%3B%26gt%3B%2B%20FechaCreacion%3A%20Date%26lt%3B%2Fspan%26gt%3B%26lt%3B%2Fp%26gt%3B%22%20style%3D%22verticalAlign%3Dtop%3Balign%3Dleft%3Boverflow%3Dfill%3BfontSize%3D17%3BfontFamily%3DHelvetica%3Bhtml%3D1%3BfillColor%3D%23F2CC8F%3BstrokeColor%3D%23E07A5F%3BfontColor%3D%23393C56%3B%22%20vertex%3D%221%22%20parent%3D%221%22%3E%3CmxGeometry%20x%3D%22170%22%20y%3D%22106.94%22%20width%3D%22304.91%22%20height%3D%22253.06%22%20as%3D%22geometry%22%2F%3E%3C%2FmxCell%3E%3C%2Froot%3E%3C%2FmxGraphModel%3E&lt;/span&gt;&lt;br style=&quot;font-size: 17px;&quot;&gt;&lt;p style=&quot;font-size: 17px;&quot;&gt;&lt;/p&gt;" style="verticalAlign=top;align=left;overflow=fill;fontSize=17;fontFamily=Helvetica;html=1;fillColor=#F25244;strokeColor=#F25244;fontColor=#ffffff;strokeWidth=3;perimeterSpacing=0;rounded=0;glass=0;shadow=1;sketch=0;" vertex="1" parent="0Efx1VS7O6IMrDYuMPd7-1">
          <mxGeometry x="440" y="348.06" width="280" height="310" as="geometry" />
        </mxCell>
        <mxCell id="Z8Mcpoi2ezNKovxTk_qm-0" value="&lt;p style=&quot;margin: 4px 0px 0px; text-align: center; font-size: 17px;&quot;&gt;&lt;i style=&quot;font-size: 17px;&quot;&gt;&amp;lt;&amp;lt;Entity&amp;gt;&amp;gt;&lt;/i&gt;&lt;br style=&quot;font-size: 17px;&quot;&gt;&lt;b style=&quot;font-size: 17px;&quot;&gt;Perfil&lt;/b&gt;&lt;/p&gt;&lt;hr style=&quot;font-size: 17px;&quot;&gt;&lt;p style=&quot;margin: 0px 0px 0px 4px; font-size: 17px;&quot;&gt;&lt;span style=&quot;text-align: center; font-size: 17px;&quot;&gt;+ id: String&lt;/span&gt;&lt;/p&gt;&lt;p style=&quot;margin: 0px 0px 0px 4px; font-size: 17px;&quot;&gt;+ nombrePerfil: String&lt;/p&gt;&lt;p style=&quot;margin: 0px 0px 0px 4px; font-size: 17px;&quot;&gt;&lt;/p&gt;&lt;div style=&quot;text-align: left; font-size: 17px;&quot;&gt;+ permisos: Object&lt;/div&gt;&lt;div style=&quot;text-align: left; font-size: 17px;&quot;&gt;+ modulos: String[ ]&lt;/div&gt;&lt;div style=&quot;text-align: left; font-size: 17px;&quot;&gt;+ fechaCreacion: Date&lt;/div&gt;&lt;div style=&quot;text-align: left; font-size: 17px;&quot;&gt;&lt;br style=&quot;font-size: 17px;&quot;&gt;&lt;/div&gt;&lt;span style=&quot;font-size: 17px; color: rgba(0, 0, 0, 0); font-family: monospace;&quot;&gt;%3CmxGraphModel%3E%3Croot%3E%3CmxCell%20id%3D%220%22%2F%3E%3CmxCell%20id%3D%221%22%20parent%3D%220%22%2F%3E%3CmxCell%20id%3D%222%22%20value%3D%22%26lt%3Bp%20style%3D%26quot%3Bmargin%3A%204px%200px%200px%20%3B%20text-align%3A%20center%20%3B%20font-size%3A%2017px%26quot%3B%26gt%3B%26lt%3Bi%20style%3D%26quot%3Bfont-size%3A%2017px%26quot%3B%26gt%3B%26amp%3Blt%3B%26amp%3Blt%3BEntity%26amp%3Bgt%3B%26amp%3Bgt%3B%26lt%3B%2Fi%26gt%3B%26lt%3Bbr%20style%3D%26quot%3Bfont-size%3A%2017px%26quot%3B%26gt%3B%26lt%3Bb%20style%3D%26quot%3Bfont-size%3A%2017px%26quot%3B%26gt%3BProgramaAc%C3%A1demico%26lt%3B%2Fb%26gt%3B%26lt%3B%2Fp%26gt%3B%26lt%3Bhr%20style%3D%26quot%3Bfont-size%3A%2017px%26quot%3B%26gt%3B%26lt%3Bp%20style%3D%26quot%3Bmargin%3A%200px%200px%200px%204px%20%3B%20font-size%3A%2017px%26quot%3B%26gt%3B%26lt%3Bspan%20style%3D%26quot%3Btext-align%3A%20center%20%3B%20font-size%3A%2017px%26quot%3B%26gt%3B%2B%20id%3A%20String%26lt%3B%2Fspan%26gt%3B%26lt%3Bbr%20style%3D%26quot%3Btext-align%3A%20center%20%3B%20font-size%3A%2017px%26quot%3B%26gt%3B%26lt%3Bspan%20style%3D%26quot%3Btext-align%3A%20center%20%3B%20font-size%3A%2017px%26quot%3B%26gt%3B%2B%20N%26lt%3B%2Fspan%26gt%3B%26lt%3Bspan%20style%3D%26quot%3Btext-align%3A%20center%20%3B%20font-size%3A%2017px%26quot%3B%26gt%3BombrePrograma%3A%20String%26lt%3B%2Fspan%26gt%3B%26lt%3Bbr%20style%3D%26quot%3Btext-align%3A%20center%20%3B%20font-size%3A%2017px%26quot%3B%26gt%3B%26lt%3Bspan%20style%3D%26quot%3Btext-align%3A%20center%20%3B%20font-size%3A%2017px%26quot%3B%26gt%3B%2B%20C%26lt%3B%2Fspan%26gt%3B%26lt%3Bspan%20style%3D%26quot%3Btext-align%3A%20center%20%3B%20font-size%3A%2017px%26quot%3B%26gt%3BodigoPrograma%3A%20String%26lt%3B%2Fspan%26gt%3B%26lt%3Bbr%20style%3D%26quot%3Bfont-size%3A%2017px%26quot%3B%26gt%3B%26lt%3B%2Fp%26gt%3B%26lt%3Bp%20style%3D%26quot%3Bmargin%3A%200px%200px%200px%204px%20%3B%20font-size%3A%2017px%26quot%3B%26gt%3B%26lt%3Bspan%20style%3D%26quot%3Btext-align%3A%20center%20%3B%20font-size%3A%2017px%26quot%3B%26gt%3B%2B%20Duracion%3A%20Numeric%26lt%3B%2Fspan%26gt%3B%26lt%3B%2Fp%26gt%3B%26lt%3Bp%20style%3D%26quot%3Bmargin%3A%200px%200px%200px%204px%20%3B%20font-size%3A%2017px%26quot%3B%26gt%3B%26lt%3Bspan%20style%3D%26quot%3Btext-align%3A%20center%20%3B%20font-size%3A%2017px%26quot%3B%26gt%3B%2B%20TotalCreditos%3A%20Numeric%26lt%3B%2Fspan%26gt%3B%26lt%3B%2Fp%26gt%3B%26lt%3Bp%20style%3D%26quot%3Bmargin%3A%200px%200px%200px%204px%20%3B%20font-size%3A%2017px%26quot%3B%26gt%3B%26lt%3Bspan%20style%3D%26quot%3Btext-align%3A%20center%20%3B%20font-size%3A%2017px%26quot%3B%26gt%3B%2B%20Nivel%3AString%26lt%3B%2Fspan%26gt%3B%26lt%3B%2Fp%26gt%3B%26lt%3Bp%20style%3D%26quot%3Bmargin%3A%200px%200px%200px%204px%20%3B%20font-size%3A%2017px%26quot%3B%26gt%3B%26lt%3Bspan%20style%3D%26quot%3Btext-align%3A%20center%20%3B%20font-size%3A%2017px%26quot%3B%26gt%3B%2B%20Modalidad%3A%20Strng%26lt%3B%2Fspan%26gt%3B%26lt%3B%2Fp%26gt%3B%26lt%3Bp%20style%3D%26quot%3Bmargin%3A%200px%200px%200px%204px%20%3B%20font-size%3A%2017px%26quot%3B%26gt%3B%26lt%3Bspan%20style%3D%26quot%3Btext-align%3A%20center%20%3B%20font-size%3A%2017px%26quot%3B%26gt%3B%2B%20FechaCreacion%3A%20Date%26lt%3B%2Fspan%26gt%3B%26lt%3B%2Fp%26gt%3B%22%20style%3D%22verticalAlign%3Dtop%3Balign%3Dleft%3Boverflow%3Dfill%3BfontSize%3D17%3BfontFamily%3DHelvetica%3Bhtml%3D1%3BfillColor%3D%23F2CC8F%3BstrokeColor%3D%23E07A5F%3BfontColor%3D%23393C56%3B%22%20vertex%3D%221%22%20parent%3D%221%22%3E%3CmxGeometry%20x%3D%22170%22%20y%3D%22106.94%22%20width%3D%22304.91%22%20height%3D%22253.06%22%20as%3D%22geometry%22%2F%3E%3C%2FmxCell%3E%3C%2Froot%3E%3C%2FmxGraphModel%3E&lt;/span&gt;&lt;br style=&quot;font-size: 17px;&quot;&gt;&lt;p style=&quot;font-size: 17px;&quot;&gt;&lt;/p&gt;" style="verticalAlign=top;align=left;overflow=fill;fontSize=17;fontFamily=Helvetica;html=1;fillColor=#F25244;strokeColor=#F25244;fontColor=#ffffff;strokeWidth=3;perimeterSpacing=0;rounded=0;glass=0;shadow=1;sketch=0;" vertex="1" parent="0Efx1VS7O6IMrDYuMPd7-1">
          <mxGeometry x="40" y="403.06" width="280" height="200" as="geometry" />
        </mxCell>
        <mxCell id="Z8Mcpoi2ezNKovxTk_qm-1" value="&lt;p style=&quot;margin: 4px 0px 0px; text-align: center; font-size: 17px;&quot;&gt;&lt;i style=&quot;font-size: 17px;&quot;&gt;&amp;lt;&amp;lt;Entity&amp;gt;&amp;gt;&lt;/i&gt;&lt;/p&gt;&lt;p style=&quot;margin: 4px 0px 0px; text-align: center; font-size: 17px;&quot;&gt;&lt;i style=&quot;font-size: 17px;&quot;&gt;&lt;b style=&quot;font-size: 17px;&quot;&gt;UsuarioPorGrupo&lt;/b&gt;&lt;/i&gt;&lt;br style=&quot;font-size: 17px;&quot;&gt;&lt;/p&gt;&lt;p style=&quot;margin: 0px 0px 0px 4px; font-size: 17px;&quot;&gt;&lt;span style=&quot;text-align: center; font-size: 17px;&quot;&gt;+ id: String&lt;/span&gt;&lt;/p&gt;&lt;p style=&quot;margin: 0px 0px 0px 4px; font-size: 17px;&quot;&gt;+ usuarioId: String&lt;/p&gt;&lt;p style=&quot;margin: 0px 0px 0px 4px; font-size: 17px;&quot;&gt;&lt;/p&gt;&lt;div style=&quot;text-align: left; font-size: 17px;&quot;&gt;&amp;nbsp;+ grupoId: String&lt;/div&gt;&lt;div style=&quot;text-align: left; font-size: 17px;&quot;&gt;&amp;nbsp;+ calificacion: Numeric&lt;/div&gt;&lt;div style=&quot;text-align: left; font-size: 17px;&quot;&gt;&amp;nbsp;+ fechaCreacion: Date&lt;/div&gt;&lt;span style=&quot;font-size: 17px; color: rgba(0, 0, 0, 0); font-family: monospace;&quot;&gt;%3CmxGraphModel%3E%3Croot%3E%3CmxCell%20id%3D%220%22%2F%3E%3CmxCell%20id%3D%221%22%20parent%3D%220%22%2F%3E%3CmxCell%20id%3D%222%22%20value%3D%22%26lt%3Bp%20style%3D%26quot%3Bmargin%3A%204px%200px%200px%20%3B%20text-align%3A%20center%20%3B%20font-size%3A%2017px%26quot%3B%26gt%3B%26lt%3Bi%20style%3D%26quot%3Bfont-size%3A%2017px%26quot%3B%26gt%3B%26amp%3Blt%3B%26amp%3Blt%3BEntity%26amp%3Bgt%3B%26amp%3Bgt%3B%26lt%3B%2Fi%26gt%3B%26lt%3Bbr%20style%3D%26quot%3Bfont-size%3A%2017px%26quot%3B%26gt%3B%26lt%3Bb%20style%3D%26quot%3Bfont-size%3A%2017px%26quot%3B%26gt%3BProgramaAc%C3%A1demico%26lt%3B%2Fb%26gt%3B%26lt%3B%2Fp%26gt%3B%26lt%3Bhr%20style%3D%26quot%3Bfont-size%3A%2017px%26quot%3B%26gt%3B%26lt%3Bp%20style%3D%26quot%3Bmargin%3A%200px%200px%200px%204px%20%3B%20font-size%3A%2017px%26quot%3B%26gt%3B%26lt%3Bspan%20style%3D%26quot%3Btext-align%3A%20center%20%3B%20font-size%3A%2017px%26quot%3B%26gt%3B%2B%20id%3A%20String%26lt%3B%2Fspan%26gt%3B%26lt%3Bbr%20style%3D%26quot%3Btext-align%3A%20center%20%3B%20font-size%3A%2017px%26quot%3B%26gt%3B%26lt%3Bspan%20style%3D%26quot%3Btext-align%3A%20center%20%3B%20font-size%3A%2017px%26quot%3B%26gt%3B%2B%20N%26lt%3B%2Fspan%26gt%3B%26lt%3Bspan%20style%3D%26quot%3Btext-align%3A%20center%20%3B%20font-size%3A%2017px%26quot%3B%26gt%3BombrePrograma%3A%20String%26lt%3B%2Fspan%26gt%3B%26lt%3Bbr%20style%3D%26quot%3Btext-align%3A%20center%20%3B%20font-size%3A%2017px%26quot%3B%26gt%3B%26lt%3Bspan%20style%3D%26quot%3Btext-align%3A%20center%20%3B%20font-size%3A%2017px%26quot%3B%26gt%3B%2B%20C%26lt%3B%2Fspan%26gt%3B%26lt%3Bspan%20style%3D%26quot%3Btext-align%3A%20center%20%3B%20font-size%3A%2017px%26quot%3B%26gt%3BodigoPrograma%3A%20String%26lt%3B%2Fspan%26gt%3B%26lt%3Bbr%20style%3D%26quot%3Bfont-size%3A%2017px%26quot%3B%26gt%3B%26lt%3B%2Fp%26gt%3B%26lt%3Bp%20style%3D%26quot%3Bmargin%3A%200px%200px%200px%204px%20%3B%20font-size%3A%2017px%26quot%3B%26gt%3B%26lt%3Bspan%20style%3D%26quot%3Btext-align%3A%20center%20%3B%20font-size%3A%2017px%26quot%3B%26gt%3B%2B%20Duracion%3A%20Numeric%26lt%3B%2Fspan%26gt%3B%26lt%3B%2Fp%26gt%3B%26lt%3Bp%20style%3D%26quot%3Bmargin%3A%200px%200px%200px%204px%20%3B%20font-size%3A%2017px%26quot%3B%26gt%3B%26lt%3Bspan%20style%3D%26quot%3Btext-align%3A%20center%20%3B%20font-size%3A%2017px%26quot%3B%26gt%3B%2B%20TotalCreditos%3A%20Numeric%26lt%3B%2Fspan%26gt%3B%26lt%3B%2Fp%26gt%3B%26lt%3Bp%20style%3D%26quot%3Bmargin%3A%200px%200px%200px%204px%20%3B%20font-size%3A%2017px%26quot%3B%26gt%3B%26lt%3Bspan%20style%3D%26quot%3Btext-align%3A%20center%20%3B%20font-size%3A%2017px%26quot%3B%26gt%3B%2B%20Nivel%3AString%26lt%3B%2Fspan%26gt%3B%26lt%3B%2Fp%26gt%3B%26lt%3Bp%20style%3D%26quot%3Bmargin%3A%200px%200px%200px%204px%20%3B%20font-size%3A%2017px%26quot%3B%26gt%3B%26lt%3Bspan%20style%3D%26quot%3Btext-align%3A%20center%20%3B%20font-size%3A%2017px%26quot%3B%26gt%3B%2B%20Modalidad%3A%20Strng%26lt%3B%2Fspan%26gt%3B%26lt%3B%2Fp%26gt%3B%26lt%3Bp%20style%3D%26quot%3Bmargin%3A%200px%200px%200px%204px%20%3B%20font-size%3A%2017px%26quot%3B%26gt%3B%26lt%3Bspan%20style%3D%26quot%3Btext-align%3A%20center%20%3B%20font-size%3A%2017px%26quot%3B%26gt%3B%2B%20FechaCreacion%3A%20Date%26lt%3B%2Fspan%26gt%3B%26lt%3B%2Fp%26gt%3B%22%20style%3D%22verticalAlign%3Dtop%3Balign%3Dleft%3Boverflow%3Dfill%3BfontSize%3D17%3BfontFamily%3DHelvetica%3Bhtml%3D1%3BfillColor%3D%23F2CC8F%3BstrokeColor%3D%23E07A5F%3BfontColor%3D%23393C56%3B%22%20vertex%3D%221%22%20parent%3D%221%22%3E%3CmxGeometry%20x%3D%22170%22%20y%3D%22106.94%22%20width%3D%22304.91%22%20height%3D%22253.06%22%20as%3D%22geometry%22%2F%3E%3C%2FmxCell%3E%3C%2Froot%3E%3C%2FmxGraphModel%3E&lt;/span&gt;&lt;br style=&quot;font-size: 17px;&quot;&gt;&lt;p style=&quot;font-size: 17px;&quot;&gt;&lt;/p&gt;" style="verticalAlign=top;align=left;overflow=fill;fontSize=17;fontFamily=Helvetica;html=1;fillColor=#D3D0C2;strokeColor=#D3D0C2;strokeWidth=3;perimeterSpacing=0;rounded=0;glass=0;shadow=1;sketch=0;" vertex="1" parent="0Efx1VS7O6IMrDYuMPd7-1">
          <mxGeometry x="840" y="403.06" width="280" height="200" as="geometry" />
        </mxCell>
        <mxCell id="Z8Mcpoi2ezNKovxTk_qm-4" value="&lt;p style=&quot;margin: 4px 0px 0px; text-align: center; font-size: 17px;&quot;&gt;&lt;i style=&quot;font-size: 17px;&quot;&gt;&amp;lt;&amp;lt;Model&amp;gt;&amp;gt;&lt;/i&gt;&lt;/p&gt;&lt;p style=&quot;margin: 4px 0px 0px; text-align: center; font-size: 17px;&quot;&gt;&lt;i style=&quot;font-size: 17px;&quot;&gt;&lt;b style=&quot;font-size: 17px;&quot;&gt;Credenciales&lt;/b&gt;&lt;/i&gt;&lt;br style=&quot;font-size: 17px;&quot;&gt;&lt;/p&gt;&lt;p style=&quot;margin: 0px 0px 0px 4px; font-size: 17px;&quot;&gt;&lt;span style=&quot;text-align: center; font-size: 17px;&quot;&gt;+ usuario: String&lt;/span&gt;&lt;/p&gt;&lt;p style=&quot;margin: 0px 0px 0px 4px; font-size: 17px;&quot;&gt;+ contrasenia: String&lt;/p&gt;&lt;br style=&quot;font-size: 17px;&quot;&gt;&lt;p style=&quot;font-size: 17px;&quot;&gt;&lt;/p&gt;" style="verticalAlign=top;align=left;overflow=fill;fontSize=17;fontFamily=Helvetica;html=1;fillColor=#D3D0C2;strokeColor=#D3D0C2;strokeWidth=3;perimeterSpacing=0;rounded=0;glass=0;shadow=1;sketch=0;" vertex="1" parent="0Efx1VS7O6IMrDYuMPd7-1">
          <mxGeometry x="840" y="680" width="280" height="120" as="geometry" />
        </mxCell>
        <mxCell id="Z8Mcpoi2ezNKovxTk_qm-6" value="" style="endArrow=none;html=1;rounded=0;fontSize=17;exitX=1;exitY=0.5;exitDx=0;exitDy=0;entryX=0;entryY=0.5;entryDx=0;entryDy=0;strokeColor=#D3D0C2;strokeWidth=3;" edge="1" parent="0Efx1VS7O6IMrDYuMPd7-1" source="lID_Iccxd9kgUI00nuMl-0" target="lID_Iccxd9kgUI00nuMl-1">
          <mxGeometry width="50" height="50" relative="1" as="geometry">
            <mxPoint x="490" y="310" as="sourcePoint" />
            <mxPoint x="540" y="260" as="targetPoint" />
          </mxGeometry>
        </mxCell>
        <mxCell id="Z8Mcpoi2ezNKovxTk_qm-7" value="" style="endArrow=none;html=1;rounded=0;fontSize=17;exitX=1;exitY=0.5;exitDx=0;exitDy=0;entryX=0;entryY=0.5;entryDx=0;entryDy=0;strokeColor=#D3D0C2;strokeWidth=3;" edge="1" parent="0Efx1VS7O6IMrDYuMPd7-1" source="lID_Iccxd9kgUI00nuMl-1" target="lID_Iccxd9kgUI00nuMl-2">
          <mxGeometry width="50" height="50" relative="1" as="geometry">
            <mxPoint x="490" y="310" as="sourcePoint" />
            <mxPoint x="540" y="260" as="targetPoint" />
          </mxGeometry>
        </mxCell>
        <mxCell id="Z8Mcpoi2ezNKovxTk_qm-8" value="" style="endArrow=none;html=1;rounded=0;fontSize=17;entryX=0.5;entryY=1;entryDx=0;entryDy=0;exitX=0.5;exitY=0.081;exitDx=0;exitDy=0;strokeColor=#D3D0C2;strokeWidth=3;startArrow=none;exitPerimeter=0;" edge="1" parent="0Efx1VS7O6IMrDYuMPd7-1" source="-i5QtSeGb634uobCOaN2-5" target="lID_Iccxd9kgUI00nuMl-2">
          <mxGeometry width="50" height="50" relative="1" as="geometry">
            <mxPoint x="590" y="340" as="sourcePoint" />
            <mxPoint x="640" y="290" as="targetPoint" />
          </mxGeometry>
        </mxCell>
        <mxCell id="Z8Mcpoi2ezNKovxTk_qm-9" value="" style="endArrow=none;html=1;rounded=0;fontSize=17;entryX=0;entryY=0.5;entryDx=0;entryDy=0;exitX=1;exitY=0.5;exitDx=0;exitDy=0;strokeColor=#D3D0C2;strokeWidth=3;" edge="1" parent="0Efx1VS7O6IMrDYuMPd7-1" source="lID_Iccxd9kgUI00nuMl-3" target="Z8Mcpoi2ezNKovxTk_qm-1">
          <mxGeometry width="50" height="50" relative="1" as="geometry">
            <mxPoint x="590" y="340" as="sourcePoint" />
            <mxPoint x="640" y="290" as="targetPoint" />
          </mxGeometry>
        </mxCell>
        <mxCell id="Z8Mcpoi2ezNKovxTk_qm-10" value="" style="endArrow=none;html=1;rounded=0;fontSize=17;exitX=1;exitY=0.5;exitDx=0;exitDy=0;entryX=0;entryY=0.5;entryDx=0;entryDy=0;strokeColor=#D3D0C2;strokeWidth=3;" edge="1" parent="0Efx1VS7O6IMrDYuMPd7-1" source="Z8Mcpoi2ezNKovxTk_qm-0" target="lID_Iccxd9kgUI00nuMl-3">
          <mxGeometry width="50" height="50" relative="1" as="geometry">
            <mxPoint x="590" y="450" as="sourcePoint" />
            <mxPoint x="640" y="400" as="targetPoint" />
          </mxGeometry>
        </mxCell>
        <mxCell id="Z8Mcpoi2ezNKovxTk_qm-13" value="1" style="text;html=1;align=center;verticalAlign=middle;resizable=0;points=[];autosize=1;strokeColor=none;fillColor=none;fontSize=17;fontColor=#D3D0C2;" vertex="1" parent="0Efx1VS7O6IMrDYuMPd7-1">
          <mxGeometry x="320" y="154" width="20" height="24" as="geometry" />
        </mxCell>
        <mxCell id="Z8Mcpoi2ezNKovxTk_qm-14" value="*" style="text;html=1;align=center;verticalAlign=middle;resizable=0;points=[];autosize=1;strokeColor=none;fillColor=none;fontSize=17;fontColor=#D3D0C2;" vertex="1" parent="0Efx1VS7O6IMrDYuMPd7-1">
          <mxGeometry x="422" y="154" width="16" height="24" as="geometry" />
        </mxCell>
        <mxCell id="QyXNEMC8EwI0Pf0a4F2I-0" value="&lt;font style=&quot;font-size: 13px;&quot;&gt;Tiene&lt;/font&gt;" style="text;html=1;align=center;verticalAlign=middle;resizable=0;points=[];autosize=1;strokeColor=none;fillColor=none;fontSize=13;fontColor=#D3D0C2;" vertex="1" parent="0Efx1VS7O6IMrDYuMPd7-1">
          <mxGeometry x="361.5" y="158" width="42" height="20" as="geometry" />
        </mxCell>
        <mxCell id="QyXNEMC8EwI0Pf0a4F2I-1" value="1" style="text;html=1;align=center;verticalAlign=middle;resizable=0;points=[];autosize=1;strokeColor=none;fillColor=none;fontSize=17;fontColor=#D3D0C2;" vertex="1" parent="0Efx1VS7O6IMrDYuMPd7-1">
          <mxGeometry x="320" y="183" width="20" height="24" as="geometry" />
        </mxCell>
        <mxCell id="QyXNEMC8EwI0Pf0a4F2I-2" value="1" style="text;html=1;align=center;verticalAlign=middle;resizable=0;points=[];autosize=1;strokeColor=none;fillColor=none;fontSize=17;fontColor=#D3D0C2;" vertex="1" parent="0Efx1VS7O6IMrDYuMPd7-1">
          <mxGeometry x="420" y="183" width="20" height="24" as="geometry" />
        </mxCell>
        <mxCell id="QyXNEMC8EwI0Pf0a4F2I-3" value="&lt;font style=&quot;font-size: 13px&quot;&gt;Pertenece&lt;/font&gt;" style="text;html=1;align=center;verticalAlign=middle;resizable=0;points=[];autosize=1;strokeColor=none;fillColor=none;fontSize=17;fontColor=#D3D0C2;" vertex="1" parent="0Efx1VS7O6IMrDYuMPd7-1">
          <mxGeometry x="346" y="178" width="69" height="25" as="geometry" />
        </mxCell>
        <mxCell id="QyXNEMC8EwI0Pf0a4F2I-4" value="1" style="text;html=1;align=center;verticalAlign=middle;resizable=0;points=[];autosize=1;strokeColor=none;fillColor=none;fontSize=17;fontColor=#D3D0C2;" vertex="1" parent="0Efx1VS7O6IMrDYuMPd7-1">
          <mxGeometry x="320" y="154" width="20" height="24" as="geometry" />
        </mxCell>
        <mxCell id="QyXNEMC8EwI0Pf0a4F2I-5" value="&lt;font style=&quot;font-size: 13px;&quot;&gt;Tiene&lt;/font&gt;" style="text;html=1;align=center;verticalAlign=middle;resizable=0;points=[];autosize=1;strokeColor=none;fillColor=none;fontSize=13;fontColor=#D3D0C2;" vertex="1" parent="0Efx1VS7O6IMrDYuMPd7-1">
          <mxGeometry x="361.5" y="158" width="42" height="20" as="geometry" />
        </mxCell>
        <mxCell id="QyXNEMC8EwI0Pf0a4F2I-6" value="1" style="text;html=1;align=center;verticalAlign=middle;resizable=0;points=[];autosize=1;strokeColor=none;fillColor=none;fontSize=17;fontColor=#D3D0C2;" vertex="1" parent="0Efx1VS7O6IMrDYuMPd7-1">
          <mxGeometry x="320" y="183" width="20" height="24" as="geometry" />
        </mxCell>
        <mxCell id="QyXNEMC8EwI0Pf0a4F2I-7" value="*" style="text;html=1;align=center;verticalAlign=middle;resizable=0;points=[];autosize=1;strokeColor=none;fillColor=none;fontSize=17;fontColor=#D3D0C2;" vertex="1" parent="0Efx1VS7O6IMrDYuMPd7-1">
          <mxGeometry x="822" y="154" width="16" height="24" as="geometry" />
        </mxCell>
        <mxCell id="QyXNEMC8EwI0Pf0a4F2I-8" value="1" style="text;html=1;align=center;verticalAlign=middle;resizable=0;points=[];autosize=1;strokeColor=none;fillColor=none;fontSize=17;fontColor=#D3D0C2;" vertex="1" parent="0Efx1VS7O6IMrDYuMPd7-1">
          <mxGeometry x="820" y="183" width="20" height="24" as="geometry" />
        </mxCell>
        <mxCell id="QyXNEMC8EwI0Pf0a4F2I-9" value="&lt;font style=&quot;font-size: 13px&quot;&gt;Pertenece&lt;/font&gt;" style="text;html=1;align=center;verticalAlign=middle;resizable=0;points=[];autosize=1;strokeColor=none;fillColor=none;fontSize=17;fontColor=#D3D0C2;" vertex="1" parent="0Efx1VS7O6IMrDYuMPd7-1">
          <mxGeometry x="746" y="178" width="69" height="25" as="geometry" />
        </mxCell>
        <mxCell id="QyXNEMC8EwI0Pf0a4F2I-10" value="1" style="text;html=1;align=center;verticalAlign=middle;resizable=0;points=[];autosize=1;strokeColor=none;fillColor=none;fontSize=17;fontColor=#D3D0C2;" vertex="1" parent="0Efx1VS7O6IMrDYuMPd7-1">
          <mxGeometry x="720" y="154" width="20" height="24" as="geometry" />
        </mxCell>
        <mxCell id="QyXNEMC8EwI0Pf0a4F2I-11" value="&lt;font style=&quot;font-size: 13px;&quot;&gt;Tiene&lt;/font&gt;" style="text;html=1;align=center;verticalAlign=middle;resizable=0;points=[];autosize=1;strokeColor=none;fillColor=none;fontSize=13;fontColor=#D3D0C2;" vertex="1" parent="0Efx1VS7O6IMrDYuMPd7-1">
          <mxGeometry x="761.5" y="158" width="42" height="20" as="geometry" />
        </mxCell>
        <mxCell id="QyXNEMC8EwI0Pf0a4F2I-12" value="1" style="text;html=1;align=center;verticalAlign=middle;resizable=0;points=[];autosize=1;strokeColor=none;fillColor=none;fontSize=17;fontColor=#D3D0C2;" vertex="1" parent="0Efx1VS7O6IMrDYuMPd7-1">
          <mxGeometry x="720" y="183" width="20" height="24" as="geometry" />
        </mxCell>
        <mxCell id="QyXNEMC8EwI0Pf0a4F2I-13" value="*" style="text;html=1;align=center;verticalAlign=middle;resizable=0;points=[];autosize=1;strokeColor=none;fillColor=none;fontSize=17;fontColor=#D3D0C2;" vertex="1" parent="0Efx1VS7O6IMrDYuMPd7-1">
          <mxGeometry x="424.5" y="476.56" width="16" height="24" as="geometry" />
        </mxCell>
        <mxCell id="QyXNEMC8EwI0Pf0a4F2I-14" value="1" style="text;html=1;align=center;verticalAlign=middle;resizable=0;points=[];autosize=1;strokeColor=none;fillColor=none;fontSize=17;fontColor=#D3D0C2;" vertex="1" parent="0Efx1VS7O6IMrDYuMPd7-1">
          <mxGeometry x="422.5" y="505.56" width="20" height="24" as="geometry" />
        </mxCell>
        <mxCell id="QyXNEMC8EwI0Pf0a4F2I-15" value="&lt;font style=&quot;font-size: 13px&quot;&gt;Pertenece&lt;/font&gt;" style="text;html=1;align=center;verticalAlign=middle;resizable=0;points=[];autosize=1;strokeColor=none;fillColor=none;fontSize=17;fontColor=#D3D0C2;" vertex="1" parent="0Efx1VS7O6IMrDYuMPd7-1">
          <mxGeometry x="348.5" y="500.56" width="69" height="25" as="geometry" />
        </mxCell>
        <mxCell id="QyXNEMC8EwI0Pf0a4F2I-16" value="1" style="text;html=1;align=center;verticalAlign=middle;resizable=0;points=[];autosize=1;strokeColor=none;fillColor=none;fontSize=17;fontColor=#D3D0C2;" vertex="1" parent="0Efx1VS7O6IMrDYuMPd7-1">
          <mxGeometry x="322.5" y="476.56" width="20" height="24" as="geometry" />
        </mxCell>
        <mxCell id="QyXNEMC8EwI0Pf0a4F2I-17" value="&lt;font style=&quot;font-size: 13px;&quot;&gt;Tiene&lt;/font&gt;" style="text;html=1;align=center;verticalAlign=middle;resizable=0;points=[];autosize=1;strokeColor=none;fillColor=none;fontSize=13;fontColor=#D3D0C2;" vertex="1" parent="0Efx1VS7O6IMrDYuMPd7-1">
          <mxGeometry x="364" y="480.56" width="42" height="20" as="geometry" />
        </mxCell>
        <mxCell id="QyXNEMC8EwI0Pf0a4F2I-18" value="1" style="text;html=1;align=center;verticalAlign=middle;resizable=0;points=[];autosize=1;strokeColor=none;fillColor=none;fontSize=17;fontColor=#D3D0C2;" vertex="1" parent="0Efx1VS7O6IMrDYuMPd7-1">
          <mxGeometry x="322.5" y="505.56" width="20" height="24" as="geometry" />
        </mxCell>
        <mxCell id="-i5QtSeGb634uobCOaN2-0" value="1" style="text;html=1;align=center;verticalAlign=middle;resizable=0;points=[];autosize=1;strokeColor=none;fillColor=none;fontSize=17;fontColor=#D3D0C2;" vertex="1" parent="0Efx1VS7O6IMrDYuMPd7-1">
          <mxGeometry x="958" y="280" width="20" height="24" as="geometry" />
        </mxCell>
        <mxCell id="-i5QtSeGb634uobCOaN2-1" value="*" style="text;html=1;align=center;verticalAlign=middle;resizable=0;points=[];autosize=1;strokeColor=none;fillColor=none;fontSize=17;fontColor=#D3D0C2;" vertex="1" parent="0Efx1VS7O6IMrDYuMPd7-1">
          <mxGeometry x="962" y="379.06" width="16" height="24" as="geometry" />
        </mxCell>
        <mxCell id="-i5QtSeGb634uobCOaN2-2" value="1" style="text;html=1;align=center;verticalAlign=middle;resizable=0;points=[];autosize=1;strokeColor=none;fillColor=none;fontSize=17;fontColor=#D3D0C2;" vertex="1" parent="0Efx1VS7O6IMrDYuMPd7-1">
          <mxGeometry x="720" y="474" width="20" height="24" as="geometry" />
        </mxCell>
        <mxCell id="-i5QtSeGb634uobCOaN2-3" value="*" style="text;html=1;align=center;verticalAlign=middle;resizable=0;points=[];autosize=1;strokeColor=none;fillColor=none;fontSize=17;fontColor=#D3D0C2;" vertex="1" parent="0Efx1VS7O6IMrDYuMPd7-1">
          <mxGeometry x="820" y="474" width="16" height="24" as="geometry" />
        </mxCell>
        <mxCell id="-i5QtSeGb634uobCOaN2-4" value="&lt;font style=&quot;font-size: 13px&quot;&gt;Pertenece&lt;/font&gt;" style="text;html=1;align=center;verticalAlign=middle;resizable=0;points=[];autosize=1;strokeColor=none;fillColor=none;fontSize=17;fontColor=#D3D0C2;" vertex="1" parent="0Efx1VS7O6IMrDYuMPd7-1">
          <mxGeometry x="748" y="469" width="69" height="25" as="geometry" />
        </mxCell>
        <mxCell id="-i5QtSeGb634uobCOaN2-5" value="&lt;font style=&quot;font-size: 14px;&quot;&gt;Tiene&lt;/font&gt;" style="text;html=1;align=center;verticalAlign=middle;resizable=0;points=[];autosize=1;strokeColor=none;fillColor=none;fontSize=14;fontColor=#D3D0C2;" vertex="1" parent="0Efx1VS7O6IMrDYuMPd7-1">
          <mxGeometry x="957" y="334" width="44" height="21" as="geometry" />
        </mxCell>
        <mxCell id="-i5QtSeGb634uobCOaN2-6" value="" style="endArrow=none;html=1;rounded=0;fontSize=17;entryX=0.5;entryY=1.003;entryDx=0;entryDy=0;exitX=0.5;exitY=0;exitDx=0;exitDy=0;strokeColor=#D3D0C2;strokeWidth=3;entryPerimeter=0;" edge="1" parent="0Efx1VS7O6IMrDYuMPd7-1" source="Z8Mcpoi2ezNKovxTk_qm-1" target="-i5QtSeGb634uobCOaN2-5">
          <mxGeometry width="50" height="50" relative="1" as="geometry">
            <mxPoint x="980" y="403.05999999999995" as="sourcePoint" />
            <mxPoint x="980" y="280" as="targetPoint" />
          </mxGeometry>
        </mxCell>
      </root>
    </mxGraphModel>
  </diagram>
</mxfile>
